/* XPM */
static char *bitcoin32[] = {
/* columns rows colors chars-per-pixel */
"32 32 121 2 ",
"   c #0B1D52",
".  c #0E2056",
"X  c #152967",
"o  c #1B2F6D",
"O  c #1F336E",
"+  c #263665",
"@  c #22356D",
"#  c #2C3C6B",
"$  c #2D3F73",
"%  c #253B7C",
"&  c #3A4976",
"*  c #414E75",
"=  c #223A80",
"-  c #2C4386",
";  c #2E468B",
":  c #364A85",
">  c #3C4D83",
",  c #3A4E8B",
"<  c #3E518B",
"1  c #314A94",
"2  c #334D9C",
"3  c #3C5192",
"4  c #2C49A1",
"5  c #2747A9",
"6  c #354FA0",
"7  c #304EA9",
"8  c #3752A4",
"9  c #3854A7",
"0  c #3351AC",
"q  c #3955AB",
"w  c #3252B2",
"e  c #3A57B0",
"r  c #3B59B3",
"t  c #3C5BBA",
"y  c #40538C",
"u  c #4C5C8C",
"i  c #415694",
"p  c #445A9B",
"a  c #5D6889",
"s  c #59699A",
"d  c #606A8A",
"f  c #757D96",
"g  c #737D9A",
"h  c #405FBB",
"j  c #4F65A7",
"k  c #4760AB",
"l  c #4962AB",
"z  c #5067AA",
"x  c #586CA8",
"c  c #4D66B2",
"v  c #4F68B6",
"b  c #4261BE",
"n  c #4B67B9",
"m  c #4D69BB",
"M  c #5068B1",
"N  c #536DBB",
"B  c #6374A8",
"V  c #6C7DB2",
"C  c #4665C1",
"Z  c #4867C3",
"A  c #4C6AC4",
"S  c #526FC5",
"D  c #5571C6",
"F  c #5974C7",
"G  c #5472C9",
"H  c #5A75C8",
"J  c #5E79CA",
"K  c #647BC0",
"L  c #687FC4",
"P  c #617BCC",
"I  c #7581A5",
"U  c #7983A4",
"Y  c #7986AD",
"T  c #7384B6",
"R  c #7887B7",
"E  c #7F8CB6",
"W  c #7D8CBA",
"Q  c #6A80C0",
"!  c #7C8EC4",
"~  c #848EAA",
"^  c #8C94AC",
"/  c #8993B2",
"(  c #8996BD",
")  c #8C98BB",
"_  c #949CB3",
"`  c #909BBC",
"'  c #A0A7BC",
"]  c #8D9BC2",
"[  c #8495C9",
"{  c #8698CC",
"}  c #8D9DCE",
"|  c #919EC5",
" . c #919FCC",
".. c #8497D0",
"X. c #899BD3",
"o. c #95A3CF",
"O. c #8FA0D3",
"+. c #98A7D3",
"@. c #9EABD4",
"#. c #9DABD8",
"$. c #AFB3C2",
"%. c #B3B8C6",
"&. c #B8BCC8",
"*. c #A2AFD7",
"=. c #A7B3D9",
"-. c #ACB7DC",
";. c #B6BDD4",
":. c #B1BBDC",
">. c #BAC0D3",
",. c #B5C0E0",
"<. c #BBC4E1",
"1. c #CED2DC",
"2. c #C8CFE5",
"3. c #CBD1E5",
"4. c #D7DDEE",
"5. c #DDE0E9",
"6. c #E1E5EE",
"7. c #EBEDF6",
"8. c #F2F3F8",
"9. c #FEFEFE",
"0. c None",
/* pixels */
"0.0.0.0.0.0.0.0.0.0.0.0.0.0.: 3 3 0.0.0.0.0.0.0.0.0.0.0.0.0.0.0.",
"0.0.0.0.0.0.0.0.0.0., l G G S D G S G G k < 0.0.0.0.0.0.0.0.0.0.",
"0.0.0.0.0.0.0.0.3 S S S S S G S D A S S D A S < 0.0.0.0.0.0.0.0.",
"0.0.0.0.0.0.0.m S S D S S S S S D D S S S S S A m 0.0.0.0.0.0.0.",
"0.0.0.0.0.0.G D D S G S S S S S D A S S A A Z Z C A 0.0.0.0.0.0.",
"0.0.0.0.0.G S D S D S D G S S S A A Z h 0 0 Q +.! b A 0.0.0.0.0.",
"0.0.0.0.G S D S D S S S A A C t 5 M [ :.7.9.9.9.) 9 Z S 0.0.0.0.",
"0.0.0.N F D D G D D S b w K o.3.9.9.9.9.9.9.9.9.^ 2 Z S N 0.0.0.",
"0.0.p S D D D D D D A X.9.9.9.9.9.9.9.9.9.9.&.%./ 2 C S D , 0.0.",
"0.0.G D D D D D D S b  .9.9.9.9.9.1.^ d + . @ I ) 8 Z D D S 0.0.",
"0., D D D D D D F D b o.8.$.f *   @ - 1 8 e q ! | 9 Z S D D , 0.",
"0.c F D D D D F D S b o.U @ ; 2 q r b Z A A Z [ | 9 Z D D F l 0.",
"0.H D G F F F G F S C @./ 2 h Z S S D D D F Z { | 9 Z D F D G 0.",
"0.H F F F F F F F S b *.( 7 Z F G H F F H D Z { | 9 Z D F F J 0.",
"< H G H F F F F F F h =.R q A G H D F F D D Z } ] 9 Z F H H H 0.",
"p H H G G H G F G F b -.T e A G F F F F H D Z O.] 9 A F G G H < ",
"p G F H F H H H H G C ,.R e A H H F F D S S b } ) q A G H H H < ",
"< H H F H H H G H G t ,.T e A H F D A w F K 1 ] ( 9 A G H H H 0.",
"0.J H F F H H H H D t <.V e A H D t X.9.9.9.9.6./ 8 A H H H J 0.",
"0.P F H F F D S Z Z r <.V e S H A #.9.9.9.9.9.9.~ 6 A G H H H 0.",
"0.c H H H S t ..-.@.x ;.B e S S t 9.9.9.9.9.9.9.U 8 S H H H l 0.",
"0.i H H D t 7.9.9.9.9.9.s q S S Q 9.9.9.9.9.9.9.$ q S H H H > 0.",
"0.0.H F t 4.9.9.9.9.9.9.u q S S 7 9.9.9.9.9.9.a ; b F H H F 0.0.",
"0.0.i D n 9.9.9.9.9.9.9.X h F F Z p ;.5.1._ # - r S H H P > 0.0.",
"0.0.0.N n 9.9.9.9.9.9.g 1 b F H G h 1 = % ; 9 b S H P H N 0.0.0.",
"0.0.0.0.w 3.9.9.9.9.' o r D P H H G A Z C Z S G H H H H 0.0.0.0.",
"0.0.0.0.0.4 Y _ ~ & % q A H H H H J H H H J J H J H P 0.0.0.0.0.",
"0.0.0.0.0.0.r 6 6 9 h S H J J J P H P H J H J J J H 0.0.0.0.0.0.",
"0.0.0.0.0.0.0.n S D F J J J J J P P H K P K H P N 0.0.0.0.0.0.0.",
"0.0.0.0.0.0.0.0.y H J J J J P J H P J J P P H & 0.0.0.0.0.0.0.0.",
"0.0.0.0.0.0.0.0.0.0.y z P P P P P P P P j 0.0.0.0.0.0.0.0.0.0.0.",
"0.0.0.0.0.0.0.0.0.0.0.0.0.0.0.0.0.0.0.0.0.0.0.0.0.0.0.0.0.0.0.0."
};
