/* XPM */
static char *bitcoin32[] = {
/* columns rows colors chars-per-pixel */
"32 32 133 2 ",
"   c #002B4C",
".  c #044269",
"X  c #0D466E",
"o  c #12466B",
"O  c #034571",
"+  c #10517F",
"@  c #1C567B",
"#  c #295A7B",
"$  c #195A87",
"%  c #1A5F8D",
"&  c #1B6595",
"*  c #16649D",
"=  c #16699F",
"-  c #1F6C9B",
";  c #3B6A8A",
":  c #216B9E",
">  c #376F94",
",  c #0D63A0",
"<  c #1E6CA2",
"1  c #106AA8",
"2  c #1D72A9",
"3  c #1A7BB8",
"4  c #216EA3",
"5  c #2271A6",
"6  c #2274AB",
"7  c #2378AF",
"8  c #227AB5",
"9  c #267EB9",
"0  c #4B728D",
"q  c #5C7D93",
"w  c #617D8E",
"e  c #4B7FA2",
"r  c #177FC1",
"t  c #2680BB",
"y  c #2882BE",
"u  c #648499",
"i  c #4E86AC",
"p  c #4584AB",
"a  c #5B8DAE",
"s  c #4789B3",
"d  c #5F95B8",
"f  c #678DA5",
"g  c #6A92AC",
"h  c #7393A8",
"j  c #7E97A8",
"k  c #6292B4",
"l  c #629ABE",
"z  c #779BB3",
"x  c #7BA2BC",
"c  c #1B83C5",
"v  c #2484C3",
"b  c #2985C3",
"n  c #2788C6",
"m  c #2686C8",
"M  c #2987C9",
"N  c #248ACB",
"B  c #2A8BCC",
"V  c #348DC7",
"C  c #2990CF",
"Z  c #248CD4",
"A  c #2B8DD1",
"S  c #2791D6",
"D  c #2B92D5",
"F  c #2690DB",
"G  c #2D96DC",
"H  c #2D98DD",
"J  c #3195DB",
"K  c #2F97E2",
"L  c #2E9BE3",
"P  c #2F9FE9",
"I  c #319BE6",
"U  c #319EEB",
"Y  c #2FA1EA",
"T  c #31A2EE",
"R  c #31A5F1",
"E  c #31A9F5",
"W  c #32ADF9",
"Q  c #4B92C0",
"!  c #5295C3",
"~  c #579ECE",
"^  c #4F9CD2",
"/  c #559FD5",
"(  c #5CA1D0",
")  c #65A5CE",
"_  c #69A5CD",
"`  c #7FA7C1",
"'  c #73AACE",
"]  c #63A5D2",
"[  c #6AA8D3",
"{  c #6CADD9",
"}  c #70A8D0",
"|  c #78AED3",
" . c #7CB2D6",
".. c #7DB6DE",
"X. c #8BA4B5",
"o. c #87A7BD",
"O. c #95A5B2",
"+. c #97A9B6",
"@. c #A3B2BC",
"#. c #84AFCB",
"$. c #8BB3CD",
"%. c #9CB4C4",
"&. c #97B6CA",
"*. c #96B8CE",
"=. c #80B4D7",
"-. c #89B5D2",
";. c #82B6D8",
":. c #87B9DA",
">. c #88B9DB",
",. c #92B7D0",
"<. c #9EBCD1",
"1. c #98BFDA",
"2. c #A6BDCC",
"3. c #B2C2CD",
"4. c #BAC6CE",
"5. c #AEC7D7",
"6. c #B2C6D4",
"7. c #B7C8D4",
"8. c #B4CDDE",
"9. c #BDCFDD",
"0. c #B7D0E0",
"q. c #BCD3E2",
"w. c #BDD7E8",
"e. c #C2D0D8",
"r. c #D2D8DD",
"t. c #DAE6EE",
"y. c #E2E6E9",
"u. c #E0E8EE",
"i. c #E8E9EA",
"p. c #EDF2F6",
"a. c #F1F4F6",
"s. c #FFFFFF",
"d. c None",
/* pixels */
"d.d.d.d.d.d.d.d.d.d.d.d.d.d.4 6 6 d.d.d.d.d.d.d.d.d.d.d.d.d.d.d.",
"d.d.d.d.d.d.d.d.d.d.5 A R R T U U U U U 9 4 d.d.d.d.d.d.d.d.d.d.",
"d.d.d.d.d.d.d.d.7 U U U I K K I U P J ;.[ B K 4 d.d.d.d.d.d.d.d.",
"d.d.d.d.d.d.d.K T U U I J / ] A K I 9 s.u., 9 A D d.d.d.d.d.d.d.",
"d.d.d.d.d.d.R U U T U I ^ s.p.* M A , p.s.q <.1.M K d.d.d.d.d.d.",
"d.d.d.d.d.R R U T U I J 1 s.s.o i #.9.s.s.s.s.7.6 J R d.d.d.d.d.",
"d.d.d.d.R T U T T U F b k p.s.s.s.s.s.s.s.s.s.2.< J U R d.d.d.d.",
"d.d.d.I U T T T U I { s.s.s.s.s.s.s.s.s.y.@.O.7.< A U T K d.d.d.",
"d.d.9 T R U T U U J } s.s.s.s.s.4.j 0 X + % e 9.2 G P T R < d.d.",
"d.d.R T U R R T R J } a.+.u # O & 5 8 b B n ! q.8 G T T T T d.d.",
"d.5 T T T T T T T G | %.$ 5 t M A G K P U G ~ q.8 G P T T R 6 d.",
"d.J T R R T R R T J  .,.6 D K T T T T T T K ~ q.8 K T T R R B d.",
"d.W R T T R T T U K ;.,.9 G T R R R T R T H ( q.8 G U R T T R d.",
"d.R R R R R R R U J ;.-.9 K T T T R T R T K ] 0.8 G T R R R E d.",
"6 R R R R R R R R G >.$.y K T R T R R T T K ] 8.8 K U R R R R d.",
"9 R R R T R R T T G >.#.y K T R R T Y K J B _ 8.3 K R R R R R 6 ",
"t R R R R R R R T H :.#.y L T R T H v ) } s a 5.7 H R R R R E 6 ",
"6 E R E R R R T Y H :.#.y L T Y N ;.s.s.s.s.s.2.2 G R R R R R d.",
"d.E R R T Y H D C n ,.#.y Y T H ;.s.s.s.s.s.s.@.2 H R R R E W d.",
"d.W R Y Y N  .w.q.x o.x t L Y c s.s.s.s.s.s.s.X.6 H R R R R R d.",
"d.D R Y B p.s.s.s.s.s.z t H Y V s.s.s.s.s.s.s.; t Y R E E R C d.",
"d.6 Y G w.s.s.s.s.s.s.f t Y Y c t.s.s.s.s.s.w & C Y E R R W 5 d.",
"d.d.Y c s.s.s.s.s.s.s.@ n Y E H 8 &.9.4.r.i.. t L R W R R T d.d.",
"d.d.2 c s.s.s.s.s.s.+.& D Y R Y G y 2 & > s.d B Y R R R W 4 d.d.",
"d.d.d.n #.s.s.s.a.s.  7 H E E Y Y Y L D n s 3 G E R R E H d.d.d.",
"d.d.d.d.v p x h u s.g t Y R E E E E E Y Y H H Y E W W R d.d.d.d.",
"d.d.d.d.d.G b 8 = 8.l n Y E E E E E E E E E E E E E E d.d.d.d.d.",
"d.d.d.d.d.d.Y Y H y C H Y E E E E E E E E E E E E E d.d.d.d.d.d.",
"d.d.d.d.d.d.d.Y E Y Y R E E W W E E E E R W E E Y d.d.d.d.d.d.d.",
"d.d.d.d.d.d.d.d.5 W W E E E E W E W E W W W E - d.d.d.d.d.d.d.d.",
"d.d.d.d.d.d.d.d.d.d.6 C E W W W W W W E B d.d.d.d.d.d.d.d.d.d.d.",
"d.d.d.d.d.d.d.d.d.d.d.d.d.d.d.d.d.d.d.d.d.d.d.d.d.d.d.d.d.d.d.d."
};
