/* XPM */
static char *bitcoin64[] = {
/* columns rows colors chars-per-pixel */
"64 64 187 2 ",
"   c #002948",
".  c #0A324C",
"X  c #02365A",
"o  c #0B3C5E",
"O  c #083D62",
"+  c #103F60",
"@  c #13405E",
"#  c #074166",
"$  c #0C4366",
"%  c #154A6D",
"&  c #164667",
"*  c #0A4A74",
"=  c #074C78",
"-  c #154C72",
";  c #184C72",
":  c #0F517C",
">  c #185077",
",  c #13527B",
"<  c #19547B",
"1  c #1A587F",
"2  c #244A64",
"3  c #2B5978",
"4  c #375B73",
"5  c #3A607A",
"6  c #415E71",
"7  c #0E5383",
"8  c #0F5988",
"9  c #1B5780",
"0  c #155984",
"q  c #1B5A84",
"w  c #115788",
"e  c #1B5E8B",
"r  c #165785",
"t  c #0F5F92",
"y  c #115F95",
"u  c #1D618E",
"i  c #0C629A",
"p  c #0E6197",
"a  c #1E6493",
"s  c #1F6897",
"d  c #14669D",
"f  c #1D6798",
"g  c #1C6A9D",
"h  c #2F6283",
"j  c #386787",
"k  c #206799",
"l  c #206B9D",
"z  c #2C6E99",
"x  c #2F6B93",
"c  c #156AA2",
"v  c #1969A1",
"b  c #1D75AC",
"n  c #1571AE",
"m  c #1576B4",
"M  c #1277B9",
"N  c #1579BA",
"B  c #1C7CBC",
"V  c #1C74B2",
"C  c #226EA2",
"Z  c #2271A5",
"A  c #2375AC",
"S  c #2379AF",
"D  c #2577B0",
"F  c #247BB3",
"G  c #267DBA",
"H  c #287FBD",
"J  c #426C85",
"K  c #51738A",
"L  c #57768A",
"P  c #477899",
"I  c #607C8E",
"U  c #1C7FC2",
"Y  c #2682BD",
"T  c #2C83BD",
"R  c #3D88B8",
"E  c #5D829C",
"W  c #6C899C",
"Q  c #748C9C",
"!  c #4E83A5",
"~  c #4583A9",
"^  c #5D8DAE",
"/  c #5A88A7",
"(  c #4689B4",
")  c #558FB5",
"_  c #598DB0",
"`  c #5D95BB",
"'  c #5F98BE",
"]  c #5791B8",
"[  c #618EAE",
"{  c #7891A0",
"}  c #7196AE",
"|  c #7D9BAD",
" . c #7693A5",
".. c #6299BD",
"X. c #6695B5",
"o. c #1E82C7",
"O. c #2684C2",
"+. c #2885C4",
"@. c #2788C5",
"#. c #2889C7",
"$. c #2486CA",
"%. c #2987C8",
"&. c #2789C9",
"*. c #298BCC",
"=. c #398CC1",
"-. c #2B8ED2",
";. c #278AD0",
":. c #2B92D5",
">. c #2D95DB",
",. c #2D99DE",
"<. c #3C96D5",
"1. c #2F97E0",
"2. c #2E9BE4",
"3. c #2F9FE8",
"4. c #309BE6",
"5. c #319EEB",
"6. c #2EA0E7",
"7. c #2FA2EB",
"8. c #31A2EE",
"9. c #31A5F1",
"0. c #31A9F5",
"q. c #32ADFA",
"w. c #32B1FE",
"e. c #4E96CA",
"r. c #549BCC",
"t. c #5D9FCA",
"y. c #579AC6",
"u. c #489CD7",
"i. c #659EC5",
"p. c #6BA1C6",
"a. c #64A2CC",
"s. c #7FAFCE",
"d. c #78B2DB",
"f. c #84939E",
"g. c #859BAA",
"h. c #88A7BC",
"j. c #91A4B1",
"k. c #A0B0BB",
"l. c #88ADC6",
"z. c #93B6CD",
"x. c #97B9CF",
"c. c #8AB4D0",
"v. c #8FB9D7",
"b. c #80B1D0",
"n. c #9BBCD3",
"m. c #94BEDA",
"M. c #A7B8C4",
"N. c #B1BEC7",
"B. c #A4BFD1",
"V. c #9DC4DF",
"C. c #97C1DD",
"Z. c #AFC1CE",
"A. c #B0C2CE",
"S. c #A2C4DB",
"D. c #BAC9D4",
"F. c #B3C8D5",
"G. c #91C1E2",
"H. c #A5C9E1",
"J. c #ABCDE3",
"K. c #A1C7E0",
"L. c #ACD0E8",
"P. c #B5D2E5",
"I. c #BED7E8",
"U. c #BCD5E5",
"Y. c #C4CED4",
"T. c #C9D3D9",
"R. c #D1D8DD",
"E. c #C1D6E4",
"W. c #C9D9E4",
"Q. c #C4DCEC",
"!. c #CDDEEA",
"~. c #C5D7E3",
"^. c #D5DDE3",
"/. c #D4E4EE",
"(. c #DFE7ED",
"). c #DCE9F2",
"_. c #E2E7EA",
"`. c #E4EDF3",
"'. c #EAEEF2",
"]. c #E7F0F7",
"[. c #ECF1F4",
"{. c #EEF4F9",
"}. c #F2F4F6",
"|. c #F1F6F9",
" X c #FFFFFF",
".X c #F5F9FB",
"XX c None",
/* pixels */
"XXXXXXXXXXXXXXXXXXXXXXXXXXXXXXXXXXXXXXXXXXXXXXXXXXXXXXXXXXXXXXXXXXXXXXXXXXXXXXXXXXXXXXXXXXXXXXXXXXXXXXXXXXXXXXXXXXXXXXXXXXXXXXXX",
"XXXXXXXXXXXXXXXXXXXXXXXXXXXXXXXXXXXXXXXXXXXXXXXXXXXXe D H H 4.1.>.>.H H D 9 XXXXXXXXXXXXXXXXXXXXXXXXXXXXXXXXXXXXXXXXXXXXXXXXXXXX",
"XXXXXXXXXXXXXXXXXXXXXXXXXXXXXXXXXXXXXXXXXXXXk H 5.8.8.5.5.5.5.5.5.5.5.5.5.5.9.1.D ; XXXXXXXXXXXXXXXXXXXXXXXXXXXXXXXXXXXXXXXXXXXX",
"XXXXXXXXXXXXXXXXXXXXXXXXXXXXXXXXXXXXXXXXH 9.5.5.5.5.5.5.5.5.5.5.5.5.5.5.4.1.1.>.:.>.4.D XXXXXXXXXXXXXXXXXXXXXXXXXXXXXXXXXXXXXXXX",
"XXXXXXXXXXXXXXXXXXXXXXXXXXXXXXXXXXXX1.9.5.5.5.5.5.5.4.4.4.4.4.4.5.5.5.5.1.>.;.U U %.-.:.4.O.XXXXXXXXXXXXXXXXXXXXXXXXXXXXXXXXXXXX",
"XXXXXXXXXXXXXXXXXXXXXXXXXXXXXXXXH 9.5.8.5.5.5.5.4.4.4.4.>.>.4.5.4.5.4.1.1.u.Q.}. Xi.H %.:.>.5.G XXXXXXXXXXXXXXXXXXXXXXXXXXXXXXXX",
"XXXXXXXXXXXXXXXXXXXXXXXXXXXXa 8.8.5.5.5.5.8.5.4.1.>.-.H U U >.4.1.4.4.1.-.e. X X Xz.C F %.-.>.1.4.; XXXXXXXXXXXXXXXXXXXXXXXXXXXX",
"XXXXXXXXXXXXXXXXXXXXXXXXXX-.9.5.5.8.5.5.8.5.5.4.1.u.d.H.].a.H H >.1.1.>.;.V  X X XW.r k D H %.;.>.4.H XXXXXXXXXXXXXXXXXXXXXXXXXX",
"XXXXXXXXXXXXXXXXXXXXXXXX4.5.5.8.8.5.8.5.8.5.5.1.:.G. X X XB.Z G %.-.>.-.H c ]. X X XX * e ` v.e.%.:.1.-.XXXXXXXXXXXXXXXXXXXXXXXX",
"XXXXXXXXXXXXXXXXXXXXXX5.5.9.8.5.8.8.8.8.8.5.4.1.;.i. X X X`.w C H H H H D e D. X X XN.'. X X X' G *.>.4.4.XXXXXXXXXXXXXXXXXXXXXX",
"XXXXXXXXXXXXXXXXXXXX9.9.5.8.8.5.8.5.8.5.5.5.1.1.%.A  X X X X% e C C v C _ h.'. X X X X X X X X^ Z +.:.4.5.5.XXXXXXXXXXXXXXXXXXXX",
"XXXXXXXXXXXXXXXXXX8.5.5.8.8.8.8.5.8.5.5.5.4.1.H G y }. X X XL 3 } B.`. X X X X X X X X X X X X/ k G -.1.4.5.5.XXXXXXXXXXXXXXXXXX",
"XXXXXXXXXXXXXXXX5.8.5.8.5.8.8.8.5.8.5.5.4.>.-.H Z 7 N. X X X X X X X X X X X X X X X X X X X XE a D -.1.4.5.9.>.XXXXXXXXXXXXXXXX",
"XXXXXXXXXXXXXX1.5.5.8.8.8.8.5.8.8.5.5.4.>.$.+.i.n._. X X X X X X X X X X X X X X X X X X X X.XI a D *.1.5.8.5.8.Y XXXXXXXXXXXXXX",
"XXXXXXXXXXXXC 9.8.9.8.8.5.9.8.8.8.8.4.1.-.L. X X X X X X X X X X X X X X X X X X X X X X X'. XW k F -.>.5.5.9.5.9.; XXXXXXXXXXXX",
"XXXXXXXXXXXX9.5.9.5.8.8.9.5.8.8.8.5.4.1.$.E. X X X X X X X X X X X X X X X X X XR.j.I 2   g. X/ k F -.1.5.8.5.8.8.5.XXXXXXXXXXXX",
"XXXXXXXXXX-.8.8.9.5.9.5.9.5.8.8.5.5.4.-.H Q..X.X X X X X X X X X X X X'.M.{ 4 X $ > > < > h. X[ z G -.1.5.5.8.8.8.8.G XXXXXXXXXX",
"XXXXXXXX; 0.8.8.5.9.5.9.5.9.5.5.8.5.1.1.H Q. X.X X X X X X X XY.g.K + O ; 9 e a k C C C f l. XX.C H -.1.5.8.8.8.8.8.q.XXXXXXXXXX",
"XXXXXXXX<.9.8.8.9.5.8.9.9.9.9.9.8.9.4.1.F !. X X X X_.k.W 4 X % 1 q e k C C D G O.O.+.H D c. X..A H -.1.5.5.8.9.8.9.8.H XXXXXXXX",
"XXXXXXXX9.9.8.8.9.5.9.8.9.5.5.9.8.5.4.H B !. XM.K + O - 1 e a f C A F H +.%.*.-.:.:.:.*.Y v. X..D O.:.1.5.8.8.5.8.8.8.q.XXXXXXXX",
"XXXXXXH 8.9.8.8.8.9.8.8.9.8.8.9.9.5.4.-.B /. Xj > 9 u k Z D G O.+.*.-.:.>.>.2.2.4.4.1.-.+.m. X..D O.:.2.3.8.8.9.8.8.8.8.G XXXXXX",
"XXXXXX9.9.8.8.9.8.8.8.9.5.8.9.8.5.4.4.-.G /. Xx u l A H +.*.-.:.>.1.2.4.4.5.5.4.5.5.4.>.#.m. X..A O.-.1.3.8.9.8.8.9.8.8.5.XXXXXX",
"XXXXC 9.8.8.9.8.8.8.8.9.9.9.8.8.9.5.4.-.B ). Xz l D O.-.>.4.2.4.4.8.5.5.5.8.8.8.8.5.4.>.%.C. X..A H -.2.3.8.8.8.9.8.8.8.9.& XXXX",
"XXXXH 9.9.8.8.9.9.8.9.9.5.9.9.9.8.5.4.:.B `. XC A Y *.>.2.5.5.8.8.8.8.8.9.8.9.9.8.5.2.>.%.C. X' D O.:.2.8.8.9.9.9.8.9.9.9.G XXXX",
"XXXXq.9.9.8.9.9.8.8.9.8.9.8.9.8.9.8.2.:.U ]. XC S +.:.2.5.8.8.9.9.8.8.9.9.9.5.9.8.8.2.>.%.V. X' A O.-.2.5.9.8.9.8.8.9.9.8.1.XXXX",
"XXXXq.9.9.8.9.8.8.9.8.9.9.8.9.9.8.5.2.:.N {. XC D +.:.4.8.8.8.9.9.9.9.9.8.9.9.9.8.8.2.>.%.K. X` A O.:.2.5.8.9.9.8.9.8.9.9.q.XXXX",
"XXk 9.8.9.9.8.9.9.8.9.8.8.9.8.8.9.5.1.:.N .X Xv D +.>.2.8.8.9.9.8.8.9.9.8.8.8.9.9.8.2.:.O.H. X' A O.-.2.5.8.9.8.9.8.9.9.9.9.% XX",
"XXH 8.9.8.9.9.9.9.9.9.9.9.9.9.9.8.5.2.:.N .X Xg D +.>.2.8.8.9.8.9.9.9.8.9.9.9.9.8.8.4.>.&.J. X` A +.:.4.5.9.9.8.9.9.9.8.9.9.C XX",
"XX*.9.9.8.9.8.9.9.8.9.9.9.8.9.9.9.5.2.-.N .X Xd D #.>.2.8.8.9.9.9.8.9.9.9.9.9.9.8.8.2.>.O.J. X` A O.:.2.5.9.9.9.9.8.8.9.9.9.F XX",
"XX>.9.8.8.9.9.9.9.9.9.9.9.9.9.9.9.3.2.:.N  X Xd F #.>.2.8.9.8.9.9.9.9.8.8.9.8.5.8.7.2.:.O.P. X] D O.-.2.5.9.9.9.9.9.9.9.9.9.+.XX",
"XX4.9.9.9.9.9.9.9.9.9.8.9.9.9.8.9.3.3.:.M  X Xi F %.>.5.8.9.9.9.9.8.8.8.8.5.5.5.4.2.>.-.U U. X] D O.:.2.5.9.9.9.9.9.9.9.9.9.-.XX",
"XX4.9.9.9.9.9.9.9.8.9.9.9.8.9.9.8.3.2.-.M  X Xi F #.>.4.7.9.9.9.9.8.8.5.2.2.>.>.:.:.*.+.V U. X) A O.:.2.4.9.9.9.9.9.9.9.9.9.:.XX",
"XX6.9.9.9.9.9.0.9.9.9.9.9.9.9.9.9.7.2.:.M  X Xi F #.>.8.8.9.9.9.8.8.6.,.>.-.#.Y G B D S g E. X_ Z Y :.4.7.9.9.9.9.9.9.9.9.9.:.XX",
"XX6.9.9.9.9.9.9.9.9.9.9.9.9.9.9.7.7.1.:.M  X Xi F #.>.2.8.9.9.7.7.2.>.*.N y.C.E.!.E.x.^ = W. X! b Y :.2.7.9.9.0.9.9.9.9.9.9.-.XX",
"XX>.9.9.9.9.9.9.9.0.9.9.9.9.8.9.7.7.1.:.M  X Xi F *.>.6.7.9.7.8.2.:.$.t.|. X X X X X X X{.'. XP l Y :.2.8.9.9.9.9.9.9.9.9.9.T XX",
"XX*.9.0.9.9.9.9.9.7.9.9.9.8.8.8.3.3.,.*.m  X Xi F *.>.7.8.8.7.2.:.B S. X X X X X X X X X X X XP k Y :.4.7.9.9.9.9.9.0.9.9.7.Y XX",
"XXF 9.0.9.9.9.9.9.9.9.6.6.4.2.,.,.>.-.@.n  X Xp F *.>.6.7.7.7.>.$.S. X X X X X X X X X X X X Xj s Y :.2.7.9.9.0.9.9.9.9.9.9.l XX",
"XXa 0.9.0.9.0.9.9.7.6.6.>.:.-.#.&.+.Y D d  X Xp F #.>.7.7.7.2.-.y. X X X X X X X X X X X X X X3 u Y :.6.8.9.9.0.0.0.9.0.9.q.XXXX",
"XXXXq.9.0.9.9.9.7.6.>.:.+.B a.b.s.' d s p  X.Xp S *.>.7.7.6.>.o.`. X X X X X X X X X X X X X X3 k Y :.6.8.9.9.9.9.9.9.9.9.w.XXXX",
"XXXX9.9.9.9.7.8.6.>.-.R I. X X X X X XF.5  X}.8 S #.>.6.6.6.:.=. X X X X X X X X X X X X X X XO s T >.6.9.9.0.9.9.0.0.9.9.>.XXXX",
"XXXX+.9.9.9.7.7.>.&.a. X X X X X X X X X X X'.7 A @.>.6.8.2.:.t. X X X X X X X X X X X X X XD., Z #.>.6.9.9.9.9.9.9.9.9.9.F XXXX",
"XXXXa 0.9.9.7.,.-.a. X X X X X X X X X X X X_.: A #.,.6.6.6.:.(  X X X X X X X X X X X X X X4 u F *.6.7.0.9.0.0.0.0.0.9.q.XXXXXX",
"XXXXXX0.9.8.2.:.#. X X X X X X X X X X X X X^., Z #.,.7.7.2.:.m ]. X X X X X X X X X X X XK < C T :.6.9.9.0.0.9.9.0.9.0.7.XXXXXX",
"XXXXXX+.9.7.,.&.F. X X X X X X X X X X X X XM.1 S *.,.6.8.6.>.@.(  X X X X X X X X X X}.6 % u F *.,.6.9.9.9.9.0.0.9.0.9.Z XXXXXX",
"XXXXXXXXq.6.>.N  X X X X X X X X X X X X X XW u Y @.,.7.9.7.,.*.F ~ |. X X X X X X X Xf.@ 1 Z Y >.6.9.9.9.0.9.9.9.9.9.q.XXXXXXXX",
"XXXXXXXX*.6.:.R  X X X X X X X X X X X X X X# a Y :.6.7.9.7.6.,.*.F t ! } |  .L 4  X X X# a F *.,.7.9.0.9.0.0.0.0.q.9.Y XXXXXXXX",
"XXXXXXXXXX7.:.T  X X X X X X X X X X X X X{ < Z Y ,.6.0.0.9.7.6.>.*.Y S g s u 1 - A. X X} v Y :.6.7.0.9.9.0.0.9.9.q.w.XXXXXXXXXX",
"XXXXXXXXXXY :.N }. X X X X X X X X X X XR.X u S -.,.7.7.0.0.0.7.6.,.:.*.T Y S Z l z  X XW.b #.>.6.7.0.0.q.9.0.0.0.9.S XXXXXXXXXX",
"XXXXXXXXXXXX,.#.p. X X X X X X X X X X X. & s Y :.6.7.0.9.0.9.7.0.6.6.,.,.:.:.Y Y b c...c Y :.,.7.9.0.0.0.0.0.0.9.7.XXXXXXXXXXXX",
"XXXXXXXXXXXX% :.b z. X X X X X X X X X'.. < C T ,.6.9.0.0.0.0.9.0.6.0.6.6.6.6.,.:.@.O.Y Y :.:.6.7.0.0.0.9.0.9.0.w.XXXXXXXXXXXXXX",
"XXXXXXXXXXXXXXS @.b ~ F.'..X[.T.Q _. X X| 1 Z #.,.7.9.0.9.0.0.0.0.0.7.0.0.7.7.6.6.,.,.:.,.,.6.6.9.0.9.0.9.0.0.q.A XXXXXXXXXXXXXX",
"XXXXXXXXXXXXXXXX@.@.S g 0 = * % ; 5  X.X Xu S #.,.6.9.0.0.0.0.0.0.0.0.0.0.0.0.7.7.6.,.6.6.6.7.7.0.9.0.0.0.0.0.:.XXXXXXXXXXXXXXXX",
"XXXXXXXXXXXXXXXXXX:.*.@.F S b l s : W..X.X_ Y *.,.7.0.0.0.0.0.0.7.0.0.0.0.0.0.0.0.7.0.7.9.9.9.0.9.0.0.0.0.0.6.XXXXXXXXXXXXXXXXXX",
"XXXXXXXXXXXXXXXXXXXX,.:.:.*.@.T Y Y R C.s Y Y ,.6.9.7.0.0.0.0.0.0.0.0.0.0.0.0.0.0.0.0.0.0.9.0.0.0.0.0.0.0.6.XXXXXXXXXXXXXXXXXXXX",
"XXXXXXXXXXXXXXXXXXXXXX6.6.,.6.>.:.*.@.Y Y Y *.,.6.0.0.0.0.0.0.0.0.0.0.0.0.0.0.0.0.0.0.0.0.0.0.0.0.0.0.0.6.XXXXXXXXXXXXXXXXXXXXXX",
"XXXXXXXXXXXXXXXXXXXXXXXX,.0.7.7.6.,.:.:.:.,.,.6.7.0.0.0.0.0.0.0.0.0.0.0.0.0.0.0.0.0.0.0.0.0.0.0.0.0.0.:.XXXXXXXXXXXXXXXXXXXXXXXX",
"XXXXXXXXXXXXXXXXXXXXXXXXXX@.q.0.9.7.6.6.6.6.6.0.0.0.0.0.0.0.0.0.0.0.0.0.0.0.0.0.0.0.0.0.0.0.0.0.q.w.Z XXXXXXXXXXXXXXXXXXXXXXXXXX",
"XXXXXXXXXXXXXXXXXXXXXXXXXXXX% 0.0.9.9.7.6.0.7.0.0.0.q.0.0.0.q.0.0.0.0.0.q.0.0.0.0.0.0.q.0.0.0.q.6.XXXXXXXXXXXXXXXXXXXXXXXXXXXXXX",
"XXXXXXXXXXXXXXXXXXXXXXXXXXXXXXXXY w.q.9.0.0.0.0.0.0.q.0.q.0.0.0.0.0.0.0.0.q.q.0.0.0.9.q.0.0.w.Z XXXXXXXXXXXXXXXXXXXXXXXXXXXXXXXX",
"XXXXXXXXXXXXXXXXXXXXXXXXXXXXXXXXXXXX@.w.0.0.0.w.0.0.0.0.0.0.q.0.q.0.q.0.0.0.0.0.0.0.q.q.w.Y XXXXXXXXXXXXXXXXXXXXXXXXXXXXXXXXXXXX",
"XXXXXXXXXXXXXXXXXXXXXXXXXXXXXXXXXXXXXXXXY 0.w.q.0.0.0.0.0.q.0.0.0.q.0.0.0.0.0.0.0.w.6.l XXXXXXXXXXXXXXXXXXXXXXXXXXXXXXXXXXXXXXXX",
"XXXXXXXXXXXXXXXXXXXXXXXXXXXXXXXXXXXXXXXXXXXXXXY ,.w.q.w.0.q.0.0.0.0.0.0.w.w.w.,.S XXXXXXXXXXXXXXXXXXXXXXXXXXXXXXXXXXXXXXXXXXXXXX",
"XXXXXXXXXXXXXXXXXXXXXXXXXXXXXXXXXXXXXXXXXXXXXXXXXXXXXXs Y Y *.:.:.@.Y Y a XXXXXXXXXXXXXXXXXXXXXXXXXXXXXXXXXXXXXXXXXXXXXXXXXXXXXX",
"XXXXXXXXXXXXXXXXXXXXXXXXXXXXXXXXXXXXXXXXXXXXXXXXXXXXXXXXXXXXXXXXXXXXXXXXXXXXXXXXXXXXXXXXXXXXXXXXXXXXXXXXXXXXXXXXXXXXXXXXXXXXXXXX"
};
