/* XPM */
static char *bitcoin16[] = {
/* columns rows colors chars-per-pixel */
"16 16 147 2 ",
"   c #1A5D89",
".  c #1A6091",
"X  c #1168A3",
"o  c #146AA4",
"O  c #1F6EA0",
"+  c #1B78B8",
"@  c #226FA5",
"#  c #117FC5",
"$  c #1D7EC2",
"%  c #378ABE",
"&  c #5684A3",
"*  c #698CA3",
"=  c #7295AB",
"-  c #6795B2",
";  c #7D9FB6",
":  c #1F81C1",
">  c #1E82C2",
",  c #1D82C5",
"<  c #1D82C6",
"1  c #1E82C6",
"2  c #1F8DD4",
"3  c #1F92DD",
"4  c #2387CB",
"5  c #2085CC",
"6  c #2188CF",
"7  c #2589CD",
"8  c #2788CD",
"9  c #258CCE",
"0  c #258CCF",
"q  c #2C8FCE",
"w  c #348FC8",
"e  c #2C8DD3",
"r  c #2C8ED5",
"t  c #2C8FD6",
"y  c #2592D6",
"u  c #2C91D5",
"i  c #2C92D7",
"p  c #2C93D7",
"a  c #2794D8",
"s  c #2C93D8",
"d  c #2B96DB",
"f  c #2C94D8",
"g  c #2C95D8",
"h  c #2D94DB",
"j  c #2C95DB",
"k  c #2C97DC",
"l  c #2C98DB",
"z  c #2C99DC",
"x  c #3196DC",
"c  c #3897DA",
"v  c #3598D8",
"b  c #2396E1",
"n  c #2696E0",
"m  c #2E9AE0",
"M  c #2E99E2",
"N  c #2F98E3",
"B  c #2B99E5",
"V  c #299AE5",
"C  c #2A9AE5",
"Z  c #2B9AE5",
"A  c #2A9BE5",
"S  c #2E9EE5",
"D  c #2D9CE7",
"F  c #2F9CE6",
"G  c #2F9DE6",
"H  c #2E9FE6",
"J  c #2D9DE8",
"K  c #2F9EEB",
"L  c #309CE8",
"P  c #309CE9",
"I  c #2BA0EB",
"U  c #2FA1ED",
"Y  c #30A2EA",
"T  c #30A0EC",
"R  c #31A0ED",
"E  c #31A0EE",
"W  c #31A1EE",
"Q  c #31A2EF",
"!  c #31A3EF",
"~  c #30A4EE",
"^  c #31A4EE",
"/  c #30A5EF",
"(  c #31A2F0",
")  c #31A3F0",
"_  c #31A3F2",
"`  c #32A3F2",
"'  c #31A4F0",
"]  c #31A4F1",
"[  c #31A5F1",
"{  c #32A5F1",
"}  c #30A6F1",
"|  c #31A6F1",
" . c #31A4F2",
".. c #31A5F2",
"X. c #32A4F3",
"o. c #31A6F2",
"O. c #31A7F2",
"+. c #31A7F3",
"@. c #31A8F3",
"#. c #31A8F4",
"$. c #31A9F4",
"%. c #31A9F5",
"&. c #31AAF5",
"*. c #32A9F6",
"=. c #31AAF6",
"-. c #32ABF7",
";. c #32ACF8",
":. c #32ADFA",
">. c #428EC2",
",. c #4393C5",
"<. c #579CC8",
"1. c #5F9DC9",
"2. c #74ABCD",
"3. c #62ABDA",
"4. c #6FAFDB",
"5. c #79B5DF",
"6. c #89A3B5",
"7. c #8BAEC6",
"8. c #90B3CC",
"9. c #93B8D0",
"0. c #91B9D3",
"q. c #92BAD4",
"w. c #95BBD5",
"e. c #96BEDA",
"r. c #98C0DA",
"t. c #9BC1DA",
"y. c #9CC3DD",
"u. c #ACC6D8",
"i. c #B4C8D5",
"p. c #B1CDDE",
"a. c #A6CBE2",
"s. c #BFD6E7",
"d. c #BCD7E9",
"f. c #C4CDD4",
"g. c #C2CFD8",
"h. c #CAD1D7",
"j. c #C4D0D8",
"k. c #CFD7DC",
"l. c #D4DBDF",
"z. c #CCDAE4",
"x. c #D7DEE3",
"c. c #D7E2E9",
"v. c #E8EBEC",
"b. c #EBECED",
"n. c #F2F6F8",
"m. c white",
"M. c None",
/* pixels */
"M.M.M.M.M.M.e t t 8 M.M.M.M.M.M.",
"M.M.M.M.N W x c L 5.1.5 M.M.M.M.",
"M.M.@ ` W L y.; >.u.x.z.6 M.M.M.",
"M.M.X.W K 4.c.m.m.m.b.h.+ ` M.M.",
"M.F W W Z d.f.6.& . X 8.$ W M M.",
"M.` W ` D 8.o j F U D e., W X.M.",
"u W / / D w.4 W / / K r., W X.u ",
"j X.X./ Z 0.7 X.W U n t., ` / f ",
"z U X./ D 0.9 X.v a.p.i.> X./ g ",
"f X.b 3.<.7.9 3 n.m.m.l.> X.X.g ",
"M.I d.m.m.g.9 2 m.m.m.* d $.&.M.",
"M., m.m.m.= z ~ % - k.O U $.F M.",
"M.M.2.j.v.  U $./ U q y $.;.M.M.",
"M.M.M.a ,.w } ;.&.$.$.$.;.M.M.M.",
"M.M.M.M.Y $.$.;.;.$.:.Y M.M.M.M.",
"M.M.M.M.M.M.l l l l M.M.M.M.M.M."
};
