/* XPM */
static char *bitcoin64[] = {
/* columns rows colors chars-per-pixel */
"64 64 177 2 ",
"   c #08153D",
".  c #05123F",
"X  c #061541",
"o  c #0B1B4C",
"O  c #0C1A44",
"+  c #15234F",
"@  c #0F2052",
"#  c #122252",
"$  c #182754",
"%  c #182857",
"&  c #12255C",
"*  c #1C2C5D",
"=  c #202F5E",
"-  c #232F55",
";  c #25335B",
":  c #142965",
">  c #1D2E63",
",  c #162A68",
"<  c #1F3061",
"1  c #1E326D",
"2  c #162F7A",
"3  c #152B70",
"4  c #1C3274",
"5  c #1F377F",
"6  c #233364",
"7  c #2A3966",
"8  c #23356B",
"9  c #2B3B6A",
"0  c #303F6A",
"q  c #223776",
"w  c #263A73",
"e  c #293C75",
"r  c #293E7C",
"t  c #39466D",
"y  c #344477",
"u  c #34457A",
"i  c #36487E",
"p  c #3C4B78",
"a  c #434F76",
"s  c #4E5876",
"d  c #4D597F",
"f  c #193484",
"g  c #1F3885",
"h  c #1E398A",
"j  c #223B84",
"k  c #223C8B",
"l  c #2C4283",
"z  c #27418F",
"x  c #2C448B",
"c  c #3B4E85",
"v  c #30488F",
"b  c #364983",
"n  c #3E518A",
"m  c #2D4590",
"M  c #25429C",
"N  c #28469E",
"B  c #2C489D",
"V  c #314994",
"C  c #344E9C",
"Z  c #3D5292",
"A  c #35509F",
"S  c #3B539A",
"D  c #2644A1",
"F  c #2947A2",
"G  c #2D4BA6",
"H  c #2B4AAA",
"J  c #304DA5",
"K  c #304EA8",
"L  c #3651A3",
"P  c #3853A7",
"I  c #3553AB",
"U  c #3955AB",
"Y  c #3E5AAD",
"T  c #3252B2",
"R  c #3A57B0",
"E  c #3C59B3",
"W  c #3E5DBA",
"Q  c #3656B9",
"!  c #41548C",
"~  c #415694",
"^  c #455995",
"/  c #40579C",
"(  c #445A9D",
")  c #495D9D",
"_  c #586383",
"`  c #616B8A",
"'  c #606F9D",
"]  c #6D799D",
"[  c #767E99",
"{  c #757D96",
"}  c #445BA3",
"|  c #485EA2",
" . c #435DAD",
".. c #415EB4",
"X. c #405FBE",
"o. c #4B62A6",
"O. c #4761AD",
"+. c #4B63AC",
"@. c #5167AB",
"#. c #5068AD",
"$. c #4561B4",
"%. c #4B65B4",
"&. c #4F68B3",
"*. c #4160BF",
"=. c #4E6ABB",
"-. c #5067B1",
";. c #536BB5",
":. c #536DBB",
">. c #5A72BC",
",. c #5B71B5",
"<. c #6273A5",
"1. c #6176B5",
"2. c #637ABE",
"3. c #697EBD",
"4. c #6D7EB2",
"5. c #4463C1",
"6. c #4867C2",
"7. c #4D6AC3",
"8. c #4D6CC8",
"9. c #526FC5",
"0. c #516EC8",
"q. c #5571C6",
"w. c #5874C7",
"e. c #5573CA",
"r. c #5A76C8",
"t. c #5E79C9",
"y. c #6078C0",
"u. c #607ACA",
"i. c #637ED0",
"p. c #7285BF",
"a. c #7A8DC7",
"s. c #7F92CB",
"d. c #828AA4",
"f. c #8791AD",
"g. c #8D94A9",
"h. c #929AAF",
"j. c #8C96B3",
"k. c #8E9ABE",
"l. c #929BB7",
"z. c #9DA5BC",
"x. c #8395CC",
"c. c #8C9BCA",
"v. c #96A3CA",
"b. c #99A7D2",
"n. c #9FACD5",
"m. c #96A5D2",
"M. c #A3ABC3",
"N. c #A4AECC",
"B. c #ACB3C7",
"V. c #B3BACE",
"C. c #BABFCF",
"Z. c #AEB8D6",
"A. c #AFBBDF",
"S. c #A7B2D4",
"D. c #B2BCD9",
"F. c #B6C0DC",
"G. c #BAC3DE",
"H. c #BEC6E1",
"J. c #C7CDDC",
"K. c #C3CBE4",
"L. c #C4CEEA",
"P. c #CBD1E5",
"I. c #CFD6E9",
"U. c #D1D5E4",
"Y. c #D6DBEC",
"T. c #DADFEF",
"R. c #D9DEF0",
"E. c #DEE3F2",
"W. c #E2E6F5",
"Q. c #E6E9F6",
"!. c #E8EBF6",
"~. c #EAEEF9",
"^. c #EDF0FB",
"/. c #F3F6FD",
"(. c #F6F8FE",
"). c #FEFEFE",
"_. c None",
/* pixels */
"_._._._._._._._._._._._._._._._._._._._._._._._._._._._._._._._._._._._._._._._._._._._._._._._._._._._._._._._._._._._._._._._.",
"_._._._._._._._._._._._._._._._._._._._._._._._._._.e Z S O.&.=.%.%.O.S Z 9 _._._._._._._._._._._._._._._._._._._._._._._._._._.",
"_._._._._._._._._._._._._._._._._._._._._._.u } 9.q.q.9.9.9.9.9.q.9.9.9.9.0.e.=.S 9 _._._._._._._._._._._._._._._._._._._._._._.",
"_._._._._._._._._._._._._._._._._._._._.( e.9.9.9.q.9.9.9.9.9.9.9.9.9.9.q.9.q.q.9.q.q.S _._._._._._._._._._._._._._._._._._._._.",
"_._._._._._._._._._._._._._._._._._.%.0.9.9.9.9.9.9.9.9.9.9.9.9.9.9.q.9.9.9.9.9.9.9.9.9.e.} _._._._._._._._._._._._._._._._._._.",
"_._._._._._._._._._._._._._._._.} w.9.9.9.9.9.9.9.9.q.7.9.9.9.9.9.9.9.9.9.9.9.9.9.9.9.9.q.q.e.S _._._._._._._._._._._._._._._._.",
"_._._._._._._._._._._._._._.u q.9.9.9.9.9.9.9.9.9.q.q.q.9.9.9.9.9.9.9.9.9.9.9.9.9.9.9.q.0.q.q.9.q.6 _._._._._._._._._._._._._._.",
"_._._._._._._._._._._._._.O.q.8.q.9.9.9.9.9.9.9.q.7.7.q.q.9.9.9.9.9.9.9.9.9.9.9.9.q.9.7.q.8.9.8.9.q.} _._._._._._._._._._._._._.",
"_._._._._._._._._._._._.7.9.9.9.9.9.9.9.9.9.0.0.9.9.9.9.9.9.9.9.9.9.9.9.9.9.9.q.q.9.7.9.7.7.7.6.6.7.7.$._._._._._._._._._._._._.",
"_._._._._._._._._._._.q.q.q.9.q.9.q.q.q.q.9.q.q.9.w.9.9.q.9.e.9.e.9.q.9.9.q.7.7.6.7.7.*.5.5.*.*.5.5.6.7.7._._._._._._._._._._._.",
"_._._._._._._._._._.e.9.q.9.q.9.0.q.q.q.q.q.0.9.0.q.9.9.9.q.9.9.9.9.9.8.8.6.6.6.6.*.W E R U N ..x.Q X.6.7.9._._._._._._._._._._.",
"_._._._._._._._._.q.9.q.9.q.9.q.q.q.9.9.9.q.q.q.q.9.9.9.9.9.9.7.7.6.6.*.*.X.W R U J F 1.c.K.).).).k R W =.7.7._._._._._._._._._.",
"_._._._._._._._.9.q.q.q.q.q.9.e.w.9.w.q.9.0.0.9.9.9.7.7.7.6.6.5.*.W E E I M  .a.S.E.).).).).).).).g L E 5.7.0.=._._._._._._._._.",
"_._._._._._._.%.9.q.9.9.9.q.9.9.9.q.9.0.q.9.9.9.9.6.5.5.*.W E R J N ,.c.H.).).).).).).).).).).).).4 V R *.7.9.q.( _._._._._._._.",
"_._._._._._.b q.q.q.q.q.q.w.w.q.q.9.q.q.9.9.7.6.5.X.W I N P p.b.R.).).).).).).).).).).).).(.).).)., x U 5.7.9.q.r.; _._._._._._.",
"_._._._._._.w.q.q.q.q.q.9.9.q.q.q.q.q.9.9.9.6.W H ;.x.G./.).).).).).).).).).(.).).(.).).).).).).).& x P W 7.9.q.q.q._._._._._._.",
"_._._._._.%.9.w.q.q.9.q.q.q.q.q.q.q.q.q.7.7.Q L.).).).).).).).).).).).).).).).).).).).).).).).).).: l I X.6.q.q.q.q.( _._._._._.",
"_._._._.; r.w.9.q.q.q.q.q.q.q.q.q.9.q.9.7.X.H ).).).).).).).).).).).).).).).).).).).).C.d.s   Y.).1 x U *.6.q.q.q.q.e._._._._._.",
"_._._._.-.9.9.w.q.q.q.9.q.9.q.q.q.q.q.9.8.*.D ).).).).).).).).).).).).).).).U.h._ 7   $ ; * % I.).2 V U *.7.9.q.q.q.9.} _._._._.",
"_._._._.e.q.q.9.q.q.q.q.q.q.q.q.q.q.q.9.6.X.k ).).).).).).).).).).~.B.{ t X # * 8 w r l l l q U.).r V R *.7.9.q.q.q.q.e._._._._.",
"_._._.| w.9.w.9.q.q.q.q.q.q.9.w.q.q.q.9.6.X.k ).).).).).).J.g._ $ O * 6 8 r u x v C A L L C z T.).j C R *.7.9.q.q.q.q.q.Z _._._.",
"_._._.e.0.w.9.w.q.q.q.q.q.0.w.9.9.q.q.9.6.Q N ).).V.[ t . # ; 8 w r l v V A L I R R E X.W R B R.).k C R *.7.9.q.q.q.q.q.q._._._.",
"_._.b 0.9.w.w.9.9.q.q.q.q.q.0.w.w.9.q.9.6.W F ).(.o = 6 w r x v V L P U R W W *.*.6.6.6.5.W G E.).k A R *.7.q.q.q.q.q.q.q.- _._.",
"_._.| w.w.w.w.w.w.w.q.w.w.q.w.w.w.w.q.9.6.W J ).^., e l V L U R W W X.6.6.6.7.7.9.q.q.q.6.5.K E.).k A R 6.7.q.w.q.q.q.w.q.( _._.",
"_._.r.w.q.w.w.w.q.w.w.q.w.w.w.w.w.q.9.9.6.X.P ).Q.4 x C U E 5.6.6.7.7.9.9.9.9.w.q.q.q.q.7.X.G Q.).k A E X.9.q.e.w.q.w.q.w.:._._.",
"_._.e.w.w.e.e.w.w.q.w.w.w.w.0.w.w.w.w.9.6.W U ).W.r V U *.*.7.9.9.9.q.q.9.w.9.w.w.w.q.9.7.*.G Q.).k A R 5.7.q.w.w.w.w.q.w.r._._.",
"_.i e.w.w.w.e.w.w.e.q.w.0.w.w.w.q.w.q.9.6.W Y ).E.k J R *.9.q.q.e.q.q.w.w.w.w.w.w.q.q.9.7.X.G ~.).k C R X.7.q.w.q.w.e.w.e.r.; _.",
"_./ w.r.w.w.w.w.w.w.w.w.w.w.w.w.w.w.w.9.6.X. .).T.l L E *.8.q.w.w.w.w.w.w.w.w.w.w.w.w.q.7.X.G ^.).h C R 5.8.q.w.w.w.w.w.w.e.c _.",
"_.o.w.w.w.w.w.w.w.w.w.w.w.w.w.w.w.w.w.9.6.X.$.).Y.l L E 6.9.q.w.w.w.w.w.w.w.w.w.w.w.w.q.8.*.G ^.).k C R 5.7.w.w.w.w.w.w.w.w.~ _.",
"_.-.w.w.w.w.w.w.w.w.w.w.w.w.w.w.w.w.r.9.6.X.%.).Y.z L E 6.9.w.w.w.w.w.w.w.w.w.w.w.w.w.q.7.*.F /.).h L E 5.7.q.w.w.w.w.w.w.w.| _.",
"_.:.w.w.w.w.w.w.w.w.w.w.w.w.w.w.w.w.w.9.6...-.).I.z L W 6.9.w.w.w.w.w.w.w.w.w.w.w.w.w.q.7.*.H /.).g C R *.9.w.w.w.w.w.w.w.w.+._.",
"_.9.w.w.w.w.w.w.w.w.w.w.w.w.e.w.w.w.w.9.6.X.-.).P.z L E 5.8.q.w.e.w.w.w.w.w.w.w.w.w.q.9.7.*.F ).).h A E 6.8.e.e.r.w.w.w.w.w.%._.",
"_.q.r.w.w.r.r.w.r.r.r.r.r.r.w.t.w.w.w.9.6.W >.).P.x J X.6.9.w.r.w.w.w.r.w.r.w.w.e.q.9.9.6.X.D ).).f L R 6.9.w.w.w.w.r.w.r.r.&._.",
"_.:.r.r.r.r.r.r.r.w.r.r.r.r.w.w.w.w.w.9.6.W >.).K.x L E 6.0.w.w.r.e.w.w.w.0.9.9.7.7.6.6.5.R M ).).f A E *.8.w.w.r.w.w.r.r.e.+._.",
"_.&.r.r.r.e.w.r.w.r.w.w.w.r.w.r.w.r.w.q.7.W >.).K.x P X.6.9.w.r.r.w.w.9.9.9.6.5.W W E R U L h ).).f C E *.9.w.w.w.w.r.r.r.w.) _.",
"_.o.w.r.w.w.r.w.e.r.w.e.r.r.r.w.t.w.w.9.6.W 2.).K.m J W 7.9.w.w.w.w.w.9.6.X.Q ..s.m.b.c.1.j 2 ).).4 C R 6.9.e.r.r.r.r.w.w.r.~ _.",
"_.~ r.r.r.r.w.r.r.w.r.r.w.r.w.r.w.r.e.q.7.W y.).D.m P W 6.9.r.r.w.0.7.5.Q 2.R.).).).).).).).k.).).3 C R 6.8.w.w.r.r.r.w.r.r.c _.",
"_.i r.w.r.r.r.w.w.r.r.w.w.w.r.w.w.r.e.9.6...y.).G.m L W =.q.r.w.w.7.5.T A.).).).).).).).).).).).).: V R 6.9.w.w.r.e.r.r.r.r._._.",
"_._.r.r.r.e.e.r.r.r.r.w.w.w.e.0.9.9.7.6.5.E 3.).D.m P W 6.q.r.r.9.6.T K.).).).).).).).).).).).).).& v R 6.q.w.w.r.w.w.r.e.i._._.",
"_._.r.r.r.r.r.r.w.r.r.e.9.9.7.6.5.5.*.W R U 3.).Z.x P W 7.9.q.9.7.X.x.).).).).).).).).).).).).).(.& v R 5.8.w.w.r.r.r.r.e.-._._.",
"_._.o.w.w.w.w.w.w.w.w.9.7.5.W H $.>.-.N B V p.).S.v P X.6.9.r.9.5.K ).).).).).).).).(.).).).).).~.& V R 6.9.r.r.w.r.w.w.w.~ _._.",
"_._.u t.w.t.t.r.w.w.9.7.5...A.).).).).).P.<.' ).N.b L X.6.q.q.9.X.x.).).).).).).).).).).).).).(.P.< V E 6.q.w.r.r.r.t.w.t._._._.",
"_._._.r.w.t.w.w.w.9.7.Q a.).).).).).).).).)./.).v.j J ..7.q.q.7.W n.).).(.).).).).).).).).).).).f.w C E 7.q.w.r.r.t.r.t.q._._._.",
"_._._.o.r.w.t.w.9.7.W x.).).).).).).).).).).).).l.r A X.7.q.q.6.E m.).).).).).).).).).).).).).).* l L X.7.w.r.u.r.r.r.r.n _._._.",
"_._._._.i.r.w.w.9.X.>.).).).).).(.).).).).).).).j.r L X.9.9.q.6.W +.).).).).).).).).).).).).).a 8 V Y 5.9.w.r.r.r.w.w.t._._._._.",
"_._._._.+.r.w.q.6.T E.).).).).(.).).).).).).).).] u L X.9.w.w.9.X.J H.).).).).).).).).).).).p 6 x L W 7.q.r.r.r.r.t.r.) _._._._.",
"_._._._._.t.r.9.*.;.).).).).).).).).).).).).).).> j P 5.7.w.w.9.6.R z D.).).).).).).).).h.# 8 x J E 6.9.w.r.r.u.t.r.t._._._._._.",
"_._._._._.o.w.9.R x.).).).).).).).).).).).).).V.> v I 6.9.w.r.w.7.W U l ^ j.M.B.z.d.d o 6 r m L E 6.9.w.u.r.r.r.r.u.~ _._._._._.",
"_._._._._._.w.7.X.x.).).).).).).(.).).).).).).t w C E 7.w.w.r.r.9.7.W P V x w q 8 w e l x C U ..6.9.q.w.r.u.r.r.r.r._._._._._._.",
"_._._._._._.7 0.*.-.).).).).(.).).).).).).).j.> l I *.7.r.r.r.r.w.9.6.X.E P C C V C C P R W 5.7.9.w.w.t.r.r.r.u.u._._._._._._._.",
"_._._._._._._.} *.B Y.).).).).).).).).(.).J.@ r C E 7.q.r.r.u.r.r.w.e.9.6.5...W W ..X.*.6.7.9.w.w.t.r.t.r.t.r.t.! _._._._._._._.",
"_._._._._._._._...R S /.).).).).).).).).z.# e V R 5.9.w.u.r.r.r.t.t.r.w.9.9.7.9.7.7.7.9.q.e.r.r.r.r.r.t.t.r.t.-._._._._._._._._.",
"_._._._._._._._._.E L x N.).).).)./.z.t > r V U 5.7.w.r.t.r.r.t.r.r.t.r.r.r.r.w.r.e.w.r.r.r.t.r.t.r.u.r.r.u.:._._._._._._._._._.",
"_._._._._._._._._._.E L x , 1 8 & # 8 e x C R 5.7.q.r.r.r.t.t.r.t.t.t.r.r.u.r.u.t.t.r.r.t.r.r.t.r.u.r.r.r.q._._._._._._._._._._.",
"_._._._._._._._._._._.E U C V x x v V C I E =.7.q.w.t.r.r.r.t.r.t.t.r.t.r.r.u.r.u.r.u.r.t.r.r.t.r.r.r.t.,._._._._._._._._._._._.",
"_._._._._._._._._._._._.R W E Y U R E X.5.7.9.w.w.t.t.t.u.u.t.t.r.r.t.t.t.t.t.r.u.r.u.u.t.t.t.t.u.u.u.#._._._._._._._._._._._._.",
"_._._._._._._._._._._._._.S 0.6.6.6.7.9.9.q.r.t.r.t.t.t.t.t.t.t.u.u.r.u.u.u.r.u.t.t.t.t.t.t.t.t.t.u.n _._._._._._._._._._._._._.",
"_._._._._._._._._._._._._._.; e.q.e.e.w.r.r.r.r.u.t.t.t.t.t.t.t.u.r.u.u.r.u.t.u.t.t.t.t.t.t.t.t.w._._._._._._._._._._._._._._._.",
"_._._._._._._._._._._._._._._._.) t.w.t.t.t.t.t.t.t.t.t.t.t.t.t.u.r.u.r.t.t.t.t.t.t.t.u.t.t.u.n _._._._._._._._._._._._._._._._.",
"_._._._._._._._._._._._._._._._._._.o.i.u.u.u.u.u.u.u.u.y.u.u.u.u.u.u.u.u.u.u.y.u.u.u.u.u.^ _._._._._._._._._._._._._._._._._._.",
"_._._._._._._._._._._._._._._._._._._._.~ w.a.u.u.u.u.u.u.u.u.u.u.u.u.u.u.u.u.u.u.i.>.c _._._._._._._._._._._._._._._._._._._._.",
"_._._._._._._._._._._._._._._._._._._._._._._.^ ;.u.u.u.u.u.u.u.t.u.u.u.u.u.u.;.! _._._._._._._._._._._._._._._._._._._._._._._.",
"_._._._._._._._._._._._._._._._._._._._._._._._._._._.p ^ ) @.@.@.o.) ^ p _._._._._._._._._._._._._._._._._._._._._._._._._._._.",
"_._._._._._._._._._._._._._._._._._._._._._._._._._._._._._._._._._._._._._._._._._._._._._._._._._._._._._._._._._._._._._._._."
};
