/* XPM */
static char *bitcoin16[] = {
/* columns rows colors chars-per-pixel */
"16 16 136 2 ",
"   c #0F2462",
".  c #17317D",
"X  c #263E8B",
"o  c #3B4D83",
"O  c #3A4E8A",
"+  c #384E8F",
"@  c #3F538F",
"#  c #2D499E",
"$  c #2D4AA2",
"%  c #3451A6",
"&  c #3753AA",
"*  c #3152B3",
"=  c #3E5BB3",
"-  c #3D5CB9",
";  c #647093",
":  c #435BA3",
">  c #405DB5",
",  c #405FBE",
"<  c #4963AF",
"1  c #4C65AD",
"2  c #5669A2",
"3  c #586BA2",
"4  c #5168AF",
"5  c #556BAF",
"6  c #596DAB",
"7  c #596EAC",
"8  c #4964B0",
"9  c #4A64B2",
"0  c #4E66B0",
"q  c #4E67B2",
"w  c #4F68B2",
"e  c #4F68B3",
"r  c #4F69B3",
"t  c #4563BD",
"y  c #4F6ABB",
"u  c #4E6ABD",
"i  c #576DB3",
"p  c #506AB5",
"a  c #516AB6",
"s  c #556CB4",
"d  c #556DB4",
"f  c #566DB4",
"g  c #506BBC",
"h  c #526DBF",
"j  c #536EBF",
"k  c #5670BC",
"l  c #5670BF",
"z  c #5871BD",
"x  c #6072A8",
"c  c #6075B2",
"v  c #6277B3",
"b  c #6478B4",
"n  c #6579B4",
"m  c #657BBC",
"M  c #4765C0",
"N  c #4665C1",
"B  c #4966C0",
"V  c #4968C4",
"C  c #4E6BC4",
"Z  c #4C6AC6",
"A  c #4E6CC6",
"S  c #4F6DC6",
"D  c #516DC1",
"F  c #526EC3",
"G  c #526FC5",
"H  c #506DC7",
"J  c #516EC6",
"K  c #526FC6",
"L  c #526FC7",
"P  c #506ECA",
"I  c #5370C6",
"U  c #5370C7",
"Y  c #5470C6",
"T  c #5571C6",
"R  c #5571C7",
"E  c #5572C7",
"W  c #5672C6",
"Q  c #5672C7",
"!  c #5773C7",
"~  c #5F77C1",
"^  c #5873C7",
"/  c #5874C7",
"(  c #5974C7",
")  c #5E78C3",
"_  c #5370C8",
"`  c #5471C8",
"'  c #5572C9",
"]  c #5672C8",
"[  c #5673C8",
"{  c #5673CA",
"}  c #5874C8",
"|  c #5875C8",
" . c #5975C8",
".. c #5B76C8",
"X. c #5A76C9",
"o. c #5B77CA",
"O. c #5C77C9",
"+. c #5C77CA",
"@. c #5D78C9",
"#. c #5E78C9",
"$. c #5E79C9",
"%. c #5F79C9",
"&. c #5E7AC9",
"*. c #5E79CC",
"=. c #5F7ACC",
"-. c #647CC7",
";. c #687FC5",
":. c #667FC8",
">. c #607BCC",
",. c #7983A0",
"<. c #6982C9",
"1. c #7287C9",
"2. c #7289CC",
"3. c #788DCE",
"4. c #7D92D1",
"5. c #878FA8",
"6. c #8991A9",
"7. c #8F97AF",
"8. c #8093D0",
"9. c #93A4D6",
"0. c #9BAAD6",
"q. c #99A9D9",
"w. c #AFBBE0",
"e. c #AEBAE1",
"r. c #BFC2CC",
"t. c #C9CFE1",
"y. c #D1D7E8",
"u. c #DBDFEE",
"i. c #E3E5E9",
"p. c #F3F3F5",
"a. c #F2F4F9",
"s. c #FCFCFE",
"d. c #FDFDFE",
"f. c #FEFEFE",
"g. c white",
"h. c None",
/* pixels */
"h.h.h.h.h.h.< 9 9 9 h.h.h.h.h.h.",
"h.h.h.h.u T G G G G T u h.h.h.h.",
"h.h.O ' T G G T G N * ) G h.h.h.",
"h.h.' T T C - 2.0.y.f.f.3 P h.h.",
"h.D T T T -.f.f.f.r.7.; x S u h.",
"h.T T T ( -.7.o . % u -.n S ' h.",
"w ^ ( / / 2.6 Z ' ( } :.v G ( q ",
"p ( / } / 3.5 I } ( } <.v G ^ p ",
"f } } } ( 4.p T } t D f c _ } r ",
"r } } T V 4.1 } D a.f.f.2 ' } r ",
"h.} N e.u.t.: _ e.s.f.f.+ } @.h.",
"h.W 0.f.f.f.X } m p.i.; = } k h.",
"h.h.9.f.f.6.= @._ $ # B } =.h.h.",
"h.h.  7 @ & } @.@.@.@.@.>.h.h.h.",
"h.h.h.h.j =.>.@.@.@.>.z h.h.h.h.",
"h.h.h.h.h.h.i f f f h.h.h.h.h.h."
};
