<?xml version="1.0" encoding="UTF-8" standalone="no"?>
<svg
   xmlns:dc="http://purl.org/dc/elements/1.1/"
   xmlns:cc="http://creativecommons.org/ns#"
   xmlns:rdf="http://www.w3.org/1999/02/22-rdf-syntax-ns#"
   xmlns:svg="http://www.w3.org/2000/svg"
   xmlns="http://www.w3.org/2000/svg"
   xmlns:xlink="http://www.w3.org/1999/xlink"
   xmlns:sodipodi="http://sodipodi.sourceforge.net/DTD/sodipodi-0.dtd"
   xmlns:inkscape="http://www.inkscape.org/namespaces/inkscape"
   version="1.1"
   width="512px"
   height="512px"
   viewBox="0 0 1 1"
   preserveAspectRatio="xMidYMid"
   id="svg2"
   inkscape:version="0.48.4 r9939"
   sodipodi:docname="logo.svg"
   inkscape:export-filename="/home/dak/Dropbox/ActiveProjects/SoundCoin/media/logo/logo1024.png"
   inkscape:export-xdpi="180"
   inkscape:export-ydpi="180">
  <metadata
     id="metadata22">
    <rdf:RDF>
      <cc:Work
         rdf:about="">
        <dc:format>image/svg+xml</dc:format>
        <dc:type
           rdf:resource="http://purl.org/dc/dcmitype/StillImage" />
        <dc:title></dc:title>
      </cc:Work>
    </rdf:RDF>
  </metadata>
  <sodipodi:namedview
     pagecolor="#ffffff"
     bordercolor="#666666"
     borderopacity="1"
     objecttolerance="10"
     gridtolerance="10"
     guidetolerance="10"
     inkscape:pageopacity="0"
     inkscape:pageshadow="2"
     inkscape:window-width="1364"
     inkscape:window-height="648"
     id="namedview20"
     showgrid="false"
     inkscape:zoom="0.4609375"
     inkscape:cx="-118.00977"
     inkscape:cy="116.31784"
     inkscape:window-x="0"
     inkscape:window-y="24"
     inkscape:window-maximized="1"
     inkscape:current-layer="svg2" />
  <!-- Android launcher icons: viewBox="-0.045 -0.045 1.09 1.09" -->
  <defs
     id="defs4">
    <filter
       id="drop-shadow">
      <feGaussianBlur
         in="SourceAlpha"
         result="blur-out"
         stdDeviation="1"
         id="feGaussianBlur7" />
      <feBlend
         in="SourceGraphic"
         in2="blur-out"
         mode="normal"
         id="feBlend9" />
    </filter>
    <linearGradient
       id="coin-gradient"
       x1="0%"
       y1="0%"
       x2="0%"
       y2="100%">
      <stop
         offset="0"
         style="stop-color:#3293e3;stop-opacity:1;"
         id="stop12" />
      <stop
         offset="1"
         style="stop-color:#30b6ff;stop-opacity:1;"
         id="stop14" />
    </linearGradient>
    <linearGradient
       inkscape:collect="always"
       xlink:href="#coin-gradient"
       id="linearGradient2999"
       x1="-51.197094"
       y1="-51.198129"
       x2="-51.197094"
       y2="115.19385"
       gradientTransform="scale(0.99994167,1.0000583)"
       gradientUnits="userSpaceOnUse" />
    <filter
       inkscape:collect="always"
       id="filter3839"
       x="-0.1264046"
       width="1.2528092"
       y="-0.11421311"
       height="1.2284262">
      <feGaussianBlur
         inkscape:collect="always"
         stdDeviation="0.033205375"
         id="feGaussianBlur3841" />
    </filter>
    <filter
       color-interpolation-filters="sRGB"
       id="drop-shadow-1">
      <feGaussianBlur
         in="SourceAlpha"
         result="blur-out"
         stdDeviation="1"
         id="feGaussianBlur7-7" />
      <feBlend
         in="SourceGraphic"
         in2="blur-out"
         mode="normal"
         id="feBlend9-4" />
    </filter>
    <filter
       inkscape:collect="always"
       id="filter3971"
       x="-0.13615596"
       width="1.2723119"
       y="-0.10727142"
       height="1.2145428">
      <feGaussianBlur
         inkscape:collect="always"
         stdDeviation="0.03633505"
         id="feGaussianBlur3973" />
    </filter>
    <filter
       inkscape:collect="always"
       id="filter4019">
      <feGaussianBlur
         inkscape:collect="always"
         stdDeviation="0.00072670097"
         id="feGaussianBlur4021" />
    </filter>
    <linearGradient
       inkscape:collect="always"
       xlink:href="#coin-gradient"
       id="linearGradient3012"
       gradientUnits="userSpaceOnUse"
       gradientTransform="scale(0.99994167,1.0000583)"
       x1="-51.197094"
       y1="-51.198129"
       x2="-51.197094"
       y2="115.19385" />
    <linearGradient
       inkscape:collect="always"
       xlink:href="#coin-gradient"
       id="linearGradient3015"
       gradientUnits="userSpaceOnUse"
       gradientTransform="scale(0.99994167,1.0000583)"
       x1="-51.197094"
       y1="-51.198129"
       x2="-51.197094"
       y2="115.19385" />
    <filter
       color-interpolation-filters="sRGB"
       inkscape:collect="always"
       id="filter4019-3">
      <feGaussianBlur
         inkscape:collect="always"
         stdDeviation="0.00072670097"
         id="feGaussianBlur4021-7" />
    </filter>
    <filter
       inkscape:collect="always"
       id="filter3840"
       x="-0.12893755"
       width="1.2578751"
       y="-0.11671579"
       height="1.2334316">
      <feGaussianBlur
         inkscape:collect="always"
         stdDeviation="0.034408721"
         id="feGaussianBlur3842" />
    </filter>
  </defs>
  <path
     inkscape:connector-curvature="0"
     style="fill:url(#linearGradient3015);filter:url(#drop-shadow)"
     d="M 63.0359,39.741 C 58.7619,56.884 41.3989,67.317 24.2539,63.042 7.1159,58.768 -3.3171,41.404 0.9589,24.262 5.2309,7.117 22.5939,-3.317 39.7339,0.957 c 17.144,4.274 27.576,21.64 23.302,38.784 z"
     id="coin"
     transform="matrix(0.01504664,0,0,0.01502112,0.01744641,0.01826439)" />
  <path
     inkscape:connector-curvature="0"
     style="fill:#ffffff;filter:url(#drop-shadow);fill-opacity:1"
     d="m 46.1009,27.441 c 0.637,-4.258 -2.605,-6.547 -7.038,-8.074 l 1.438,-5.768 -3.511,-0.875 -1.4,5.616 c -0.923,-0.23 -1.871,-0.447 -2.813,-0.662 l 1.41,-5.653 -3.509,-0.875 -1.439,5.766 c -0.764,-0.174 -1.514,-0.346 -2.242,-0.527 l 0.004,-0.018 -4.842,-1.209 -0.934,3.75 c 0,0 2.605,0.597 2.55,0.634 1.422,0.355 1.679,1.296 1.636,2.042 l -1.638,6.571 c 0.098,0.025 0.225,0.061 0.365,0.117 -0.117,-0.029 -0.242,-0.061 -0.371,-0.092 l -2.296,9.205 c -0.174,0.432 -0.615,1.08 -1.609,0.834 0.035,0.051 -2.552,-0.637 -2.552,-0.637 l -1.743,4.019 4.569,1.139 c 0.85,0.213 1.683,0.436 2.503,0.646 l -1.453,5.834 3.507,0.875 1.439,-5.772 c 0.958,0.26 1.888,0.5 2.798,0.726 l -1.434,5.745 3.511,0.875 1.453,-5.823 c 5.987,1.133 10.489,0.676 12.384,-4.739 1.527,-4.36 -0.076,-6.875 -3.226,-8.515 2.294,-0.529 4.022,-2.038 4.483,-5.155 z m -8.022,11.249 c -1.085,4.36 -8.426,2.003 -10.806,1.412 l 1.928,-7.729 c 2.38,0.594 10.012,1.77 8.878,6.317 z m 1.086,-11.312 c -0.99,3.966 -7.1,1.951 -9.082,1.457 l 1.748,-7.01 c 1.982,0.494 8.365,1.416 7.334,5.553 z"
     id="symbol"
     transform="matrix(0.015625,0,0,0.015625,1.0847458,-0.06779661)" />
  <path
     sodipodi:nodetypes="ccccccscccscscssssscccscsccccscc"
     inkscape:connector-curvature="0"
     id="path3796"
     d="m -1.1592906,0.76638231 c -0.0235,-0.005111 -0.047062,-0.0223496 -0.057503,-0.0420711 -0.017818,-0.0336582 -0.014134,-0.0697669 0.010976,-0.10754158 0.016465,-0.0247711 0.040105,-0.0426138 0.070212,-0.0529961 0.015632,-0.00539 0.017821,-0.005693 0.041681,-0.005747 0.028802,-6.6e-5 0.041067,0.002764 0.064162,0.0148098 0.00711,0.003709 0.013157,0.006515 0.013437,0.006236 5.2e-4,-5.2e-4 0.00309,-0.16267756 0.00494,-0.3111311 0.00128,-0.10259916 0.00162,-0.11351714 0.00359,-0.11544754 8.636e-4,-8.4414e-4 0.0304857,-0.008208 0.0658273,-0.0163652 0.0353416,-0.008157 0.12983444,-0.0300214 0.209984,-0.048588 0.0801496,-0.0185666 0.14690073,-0.033307 0.14833592,-0.0327563 0.002313,8.8744e-4 0.002472,0.0297619 0.001402,0.25382951 -0.001338,0.28016393 -6.8209e-4,0.26543166 -0.0129609,0.29103536 -0.008563,0.0178545 -0.0214867,0.0332935 -0.0372576,0.0445073 -0.0353808,0.0251572 -0.0825002,0.037476 -0.12559748,0.0328358 -0.0209924,-0.00226 -0.0323917,-0.006013 -0.0470573,-0.0154918 -0.0319822,-0.0206711 -0.0444524,-0.0636597 -0.0292905,-0.10097346 0.016833,-0.0414263 0.0553116,-0.0748819 0.10025836,-0.0871707 0.012072,-0.003301 0.0186671,-0.003945 0.0396618,-0.003876 0.0273915,9.013e-5 0.0378066,0.002073 0.059654,0.0113541 0.006543,0.00278 0.0124778,0.004693 0.0131902,0.004253 7.1234e-4,-4.4023e-4 0.001811,-0.0494782 0.002442,-0.10897327 6.3045e-4,-0.059495 0.001651,-0.13064127 0.002267,-0.15810268 0.001106,-0.049266 0.001075,-0.0499299 -0.002378,-0.0499299 -0.003052,0 -0.0638254,0.0133779 -0.29896488,0.06581 -0.029954,0.00668 -0.0547632,0.0124451 -0.0551313,0.0128128 -3.6777e-4,3.6774e-4 -0.001814,0.0869644 -0.003219,0.19243687 -0.00217,0.16364891 -0.002961,0.19366391 -0.005362,0.20469615 -0.0140696,0.064637 -0.0622519,0.11222593 -0.12485194,0.12331377 -0.013841,0.002451 -0.039367,0.002077 -0.052456,-7.6915e-4 z"
     style="fill:#d2d2d2" />
  <path
     sodipodi:nodetypes="cscssccccsscscsscsssscscccccscc"
     inkscape:connector-curvature="0"
     id="path3794"
     d="m -1.159463,0.76461046 c -0.039315,-0.008542 -0.066451,-0.0425722 -0.066451,-0.0833367 0,-0.0171275 0.00407,-0.0318917 0.014376,-0.0521008 0.0099,-0.0194178 0.034516,-0.0440092 0.054223,-0.0541677 0.024045,-0.0123945 0.036248,-0.0152999 0.064258,-0.0152999 0.028105,0 0.040753,0.00302 0.063794,0.0152294 0.00739,0.003914 0.01376,0.006778 0.014164,0.006364 8.559e-4,-8.7864e-4 0.00632,-0.33886647 0.00629,-0.38900552 -1.55e-5,-0.0245543 5.84e-4,-0.0347947 0.00216,-0.0369519 0.00162,-0.002215 0.0417766,-0.0121547 0.15586789,-0.0385795 0.0845273,-0.0195775 0.17866482,-0.0413821 0.20919458,-0.0484547 0.0305297,-0.007073 0.0562521,-0.0123999 0.0571607,-0.0118383 0.001041,6.4374e-4 0.001208,0.094129 4.4793e-4,0.25299722 -0.001005,0.21019334 -0.001622,0.25396684 -0.003726,0.26398096 -0.008529,0.0406033 -0.0383679,0.0721965 -0.0852683,0.0902816 -0.0231212,0.008916 -0.0397525,0.0119594 -0.0658037,0.012043 -0.0262444,8.423e-5 -0.0390501,-0.002085 -0.0542222,-0.009185 -0.0371963,-0.0174063 -0.0554366,-0.0613025 -0.0417151,-0.10038954 0.0121472,-0.0346027 0.0409108,-0.0655025 0.0762098,-0.0818701 0.0230684,-0.0106966 0.0349651,-0.0131345 0.0640131,-0.0131183 0.0282219,1.563e-5 0.0387055,0.002134 0.0606253,0.0122508 0.007076,0.003266 0.0133285,0.005477 0.0138935,0.004914 0.001043,-0.00104 0.002604,-0.10051743 0.003826,-0.24387692 5.9269e-4,-0.0694805 3.5959e-4,-0.0789828 -0.001931,-0.0787158 -0.006013,7.0047e-4 -0.35026451,0.0772807 -0.35364501,0.0786697 -0.003655,0.001503 -0.003717,0.002307 -0.004855,0.0680804 -6.323e-4,0.0366077 -0.001823,0.12360961 -0.002641,0.19333772 -0.001414,0.12017544 -0.001681,0.12752858 -0.005131,0.14118231 -0.0130541,0.0517114 -0.0487452,0.0933843 -0.0948285,0.11072196 -0.024613,0.00926 -0.056611,0.0119847 -0.0803,0.006838 z"
     style="fill:#a2a2a2" />
  <g
     id="g3017"
     transform="matrix(0.96360078,0,0,0.93991719,-2.6702998,0.12567674)">
    <path
       style="fill:#000000;fill-opacity:1;filter:url(#filter3971)"
       d="m 0.18673652,0.82555412 c -0.032951,-0.008753 -0.056871,-0.0349431 -0.062524,-0.068456 -0.00531,-0.0314548 0.01067,-0.0704367 0.040206,-0.0981054 0.015676,-0.0146853 0.027999,-0.0222266 0.047046,-0.0287892 0.039314,-0.0135459 0.080277,-0.008551 0.11724619,0.0142959 0.00436,0.002692 0.00581,0.002961 0.00636,0.001175 3.9e-4,-0.001272 0.00157,-0.0675688 0.00263,-0.14732621 0.00343,-0.25874818 0.00385,-0.27860036 0.00598,-0.28062605 0.00109,-0.001038 0.029718,-0.008249 0.0636274,-0.0160208 0.004239,-9.715e-4 0.009412,-0.00216 0.0153764,-0.003531 0.005965,-0.001372 -0.0194877,-0.0845744 -0.0120814,-0.0862808 0.007406,-0.001706 0.0476716,-0.0103053 0.0562347,-0.0122806 0.008563,-0.001975 0.0176336,0.0843198 0.0270689,0.0821415 0.0377411,-0.008713 0.0813207,-0.0187889 0.12162888,-0.0281219 0.010077,-0.002333 -0.0153802,-0.0794059 -0.005849,-0.0815976 0.009531,-0.002192 0.042022,-0.006783 0.0508057,-0.008788 0.008784,-0.002005 0.0141911,0.0771212 0.0220256,0.0753481 0.007834,-0.001773 0.030125,-0.007164 0.0368086,-0.00866 0.0267347,-0.005984 0.043456,-0.00957 0.0437108,-0.009315 0.001179,0.001179 6.0778e-4,0.32745889 -7.5209e-4,0.42983399 -0.001139,0.0857537 -0.001655,0.0904473 -0.0123764,0.11255717 -0.008497,0.0175236 -0.0301513,0.0396317 -0.0493493,0.0503841 -0.004456,0.002496 0.0265686,0.0603515 0.0213613,0.0626385 -0.005207,0.002287 -0.0361602,0.0149222 -0.0417278,0.016864 -0.005568,0.001942 -0.0217045,-0.0622398 -0.0272419,-0.0607794 -0.005537,0.00146 -0.0109621,0.002646 -0.0160789,0.003489 -0.0179471,0.002957 -0.0495614,0.00241 -0.0643791,-0.001113 -0.0220556,-0.005244 -0.0432364,-0.0220618 -0.0532156,-0.0422533 -0.0148912,-0.0301311 -0.0112526,-0.0597883 0.0114611,-0.0933982 0.0270361,-0.0400064 0.0724977,-0.0640714 0.12136608,-0.064245 0.0254042,-9.004e-5 0.0510959,0.005916 0.0699591,0.0163539 0.003571,0.001977 0.006926,0.00316 0.007455,0.002632 0.001119,-0.001119 0.004065,-0.18098509 0.004369,-0.26663828 1.9649e-4,-0.0556469 4.395e-5,-0.0586729 -0.002981,-0.0591461 -0.00483,-7.5554e-4 -0.35542422,0.0777162 -0.35774758,0.0800728 -0.001485,0.001508 -0.002534,0.0505452 -0.003966,0.18527114 -0.001067,0.10077144 -0.002721,0.19008847 -0.003672,0.19848228 -0.003748,0.0330447 -0.017705,0.0632984 -0.0384928,0.0869262 -0.002599,0.002954 -0.005304,0.005803 -0.008109,0.008542 -0.002805,0.002739 0.0317417,0.0637932 0.0287427,0.0663022 -0.005998,0.00502 -0.0370897,0.018552 -0.0437838,0.022562 -0.006694,0.00401 -0.0264436,-0.0599278 -0.0337279,-0.057046 -0.007284,0.002882 -0.0148373,0.00517 -0.0226062,0.006805 -0.015716,0.003306 -0.048076,0.003222 -0.060799,-1.5781e-4 z"
       id="path3792-2"
       inkscape:connector-curvature="0"
       sodipodi:nodetypes="ccssccscsssssssssscscsssscscssccsscccsssssscc" />
    <path
       style="fill:#ffffff;fill-opacity:1;filter:url(#filter4019)"
       d="m 0.17381697,0.81358479 c -0.032951,-0.008753 -0.056871,-0.0349431 -0.062524,-0.068456 -0.00531,-0.0314548 0.01067,-0.0704367 0.040206,-0.0981054 0.015676,-0.0146853 0.027999,-0.0222266 0.047046,-0.0287892 0.039314,-0.0135459 0.080277,-0.008551 0.1172462,0.0142959 0.00436,0.002692 0.00581,0.002961 0.00636,0.001175 3.9e-4,-0.001272 0.00157,-0.0675688 0.00263,-0.14732621 0.00343,-0.25874818 0.00385,-0.27860036 0.00598,-0.28062605 0.00109,-0.001038 0.029718,-0.008249 0.0636274,-0.0160208 0.004239,-9.715e-4 0.009412,-0.00216 0.0153764,-0.003531 0.005965,-0.001372 -0.0194877,-0.0845744 -0.0120814,-0.08628083 0.007406,-0.0017065 0.0476716,-0.01030527 0.0562347,-0.01228056 0.008563,-0.0019753 0.0176336,0.08431982 0.0270689,0.08214149 0.0377411,-0.008713 0.0813207,-0.0187889 0.12162889,-0.0281219 0.010077,-0.002333 -0.0153802,-0.07940592 -0.005849,-0.08159759 0.009531,-0.0021917 0.042022,-0.0067834 0.0508057,-0.0087884 0.008784,-0.0020049 0.0141911,0.07712115 0.0220256,0.07534815 0.007834,-0.001773 0.030125,-0.007164 0.0368086,-0.00866 0.0267347,-0.005984 0.043456,-0.00957 0.0437108,-0.009315 0.001179,0.001179 6.0777e-4,0.32745889 -7.5209e-4,0.42983398 -0.001139,0.0857537 -0.001655,0.0904473 -0.0123764,0.11255718 -0.008497,0.0175236 -0.0301513,0.0396317 -0.0493493,0.0503841 -0.004456,0.002496 0.0265686,0.0603515 0.0213613,0.0626385 -0.005207,0.002287 -0.0290176,0.0136434 -0.0345852,0.0155852 -0.005568,0.001942 -0.0288471,-0.0609611 -0.0343845,-0.0595007 -0.005537,0.00146 -0.0109621,0.002646 -0.0160789,0.003489 -0.0179471,0.002957 -0.0495614,0.00241 -0.0643791,-0.001113 -0.0220556,-0.005244 -0.0432364,-0.0220618 -0.0532156,-0.0422533 -0.0148912,-0.0301311 -0.0112526,-0.0597883 0.0114611,-0.0933982 0.0270361,-0.0400064 0.0724977,-0.0640714 0.12136607,-0.064245 0.0254042,-9.014e-5 0.0510959,0.005916 0.0699591,0.0163539 0.003571,0.001977 0.006926,0.00316 0.007455,0.002632 0.001119,-0.001119 0.004065,-0.1809851 0.004369,-0.26663828 1.9647e-4,-0.0556469 4.394e-5,-0.0586729 -0.002981,-0.0591461 -0.00483,-7.5554e-4 -0.35542423,0.0777162 -0.35774758,0.0800728 -0.001485,0.001508 -0.002534,0.0505452 -0.003966,0.18527113 -0.001067,0.10077145 -0.002721,0.19008847 -0.003672,0.19848228 -0.003748,0.0330447 -0.017705,0.0632984 -0.0384928,0.0869262 -0.002599,0.002954 -0.008482,0.0142776 -0.011287,0.0170166 -0.002805,0.002739 0.0311744,0.0560677 0.0281754,0.0585767 -0.005998,0.005019 -0.0306961,0.0162136 -0.0373902,0.0202238 -0.006694,0.00401 -0.0290919,-0.0583388 -0.0363762,-0.055457 -0.007284,0.002882 -0.0148373,0.00517 -0.0226062,0.006805 -0.015716,0.003306 -0.048076,0.003222 -0.060799,-1.5786e-4 z"
       id="path3792"
       inkscape:connector-curvature="0"
       sodipodi:nodetypes="ccssccscsssssssssscscsssscscssccsscccsssssscc" />
  </g>
  <g
     id="g3843"
     transform="translate(-1.2457627,0.0190678)">
    <path
       style="fill:#000000;fill-opacity:1;stroke:none;filter:url(#filter3839)"
       d="m 0.21412333,0.8262876 c -0.0344338,-0.00507 -0.0608578,-0.0282622 -0.0693507,-0.0608682 -0.005404,-0.0207442 -0.001531,-0.0449602 0.0110597,-0.0691609 0.0209812,-0.0403289 0.060518,-0.0661563 0.10694946,-0.0698652 0.0246724,-0.00197 0.0556313,0.005487 0.0757539,0.0182487 0.004347,0.00276 0.008961,0.005017 0.0102465,0.005017 0.002994,0 0.004001,-0.023481 0.005296,-0.12354123 0.002747,-0.21289049 0.004337,-0.2993164 0.005523,-0.30046948 7.2195e-4,-7.0205e-4 0.0518869,-0.0129759 0.11370074,-0.0272752 0.0618133,-0.0142994 0.14211533,-0.0329119 0.17844844,-0.0413613 0.10028537,-0.0233215 0.12017547,-0.0277615 0.12094007,-0.0269968 3.86e-4,3.8592e-4 7.6e-5,0.11379608 -6.887e-4,0.25202258 -0.00154,0.27822658 -5.919e-4,0.25747832 -0.012886,0.28220621 -0.014331,0.0288244 -0.0416516,0.0504734 -0.0802731,0.0636094 -0.025939,0.008823 -0.0603307,0.011786 -0.0871468,0.00751 -0.0321077,-0.00512 -0.0588462,-0.0302069 -0.0652926,-0.0612591 -0.00892,-0.0429663 0.0241784,-0.0964516 0.0747297,-0.12076017 0.0219401,-0.0105503 0.0374133,-0.0139504 0.0634865,-0.0139504 0.0256356,0 0.0412924,0.003357 0.0624896,0.0134007 0.007002,0.003317 0.0133313,0.005428 0.0140661,0.004691 0.00114,-0.001146 0.00492,-0.23129596 0.00494,-0.3011849 7.8e-6,-0.0210306 -3.082e-4,-0.0235929 -0.0029,-0.0235929 -0.00237,0 -0.28447605,0.0624255 -0.34155689,0.0755803 -0.0134026,0.003089 -0.0159942,0.004237 -0.0166268,0.007364 -4.1176e-4,0.002038 -0.001599,0.0870959 -0.002644,0.18901733 -0.00109,0.10693048 -0.002628,0.18966638 -0.003619,0.19560697 -0.002759,0.0164191 -0.011339,0.0398344 -0.0200759,0.0548017 -0.0108868,0.0186496 -0.0360353,0.043838 -0.0535447,0.0536305 -0.0282045,0.0157736 -0.060683,0.0220457 -0.0910245,0.0175783 z"
       id="path3790-3"
       inkscape:connector-curvature="0"
       sodipodi:nodetypes="cscccsscsscssscssssccssccccscc" />
    <path
       style="fill:#ffffff;fill-opacity:1;stroke:none"
       d="m 0.10449432,0.78274568 c -0.0344338,-0.00507 -0.0608578,-0.0282622 -0.0693507,-0.0608682 -0.005404,-0.0207442 -0.001531,-0.0449602 0.0110597,-0.0691609 0.0209812,-0.0403289 0.060518,-0.0661563 0.10694946,-0.0698652 0.0246724,-0.00197 0.0556313,0.005487 0.0757539,0.0182487 0.004347,0.00276 0.008961,0.005017 0.0102465,0.005017 0.002994,0 0.004001,-0.023481 0.005296,-0.12354123 0.002747,-0.21289048 0.004337,-0.29931639 0.005523,-0.30046947 7.2194e-4,-7.0205e-4 0.0518869,-0.0129759 0.11370074,-0.0272752 0.0618133,-0.0142994 0.14211532,-0.0329119 0.17844844,-0.0413613 0.10028538,-0.0233215 0.12017542,-0.0277615 0.1209401,-0.0269968 3.8594e-4,3.8592e-4 7.6e-5,0.11379609 -6.8877e-4,0.25202258 -0.001539,0.27822658 -5.9189e-4,0.25747833 -0.0128862,0.28220621 -0.0143311,0.0288244 -0.0416515,0.0504734 -0.080273,0.0636094 -0.025939,0.008823 -0.0603307,0.011786 -0.0871468,0.00751 -0.0321077,-0.00512 -0.0588462,-0.0302069 -0.0652926,-0.0612591 -0.00892,-0.0429663 0.0241784,-0.0964516 0.0747297,-0.12076018 0.0219401,-0.0105503 0.0374133,-0.0139504 0.0634865,-0.0139504 0.0256356,0 0.0412924,0.003357 0.0624896,0.0134007 0.007002,0.003317 0.0133312,0.005428 0.0140661,0.004691 0.001143,-0.001146 0.004919,-0.23129597 0.00494,-0.3011849 6.87e-6,-0.0210306 -3.0815e-4,-0.0235929 -0.002899,-0.0235929 -0.002367,0 -0.28447599,0.0624255 -0.34155683,0.0755803 -0.0134026,0.003089 -0.0159942,0.004237 -0.0166268,0.007364 -4.1175e-4,0.002038 -0.001599,0.0870959 -0.002644,0.18901733 -0.00109,0.10693047 -0.002628,0.18966638 -0.003619,0.19560696 -0.002759,0.0164191 -0.011339,0.0398344 -0.0200759,0.0548017 -0.0108868,0.0186496 -0.0360353,0.043838 -0.0535447,0.0536305 -0.0282045,0.0157736 -0.060683,0.0220457 -0.0910245,0.0175783 z"
       id="path3790"
       inkscape:connector-curvature="0"
       sodipodi:nodetypes="cscccsscsscssscssssccssccccscc" />
  </g>
  <path
     sodipodi:nodetypes="cccsscccssssssccsccscsccccssscc"
     inkscape:connector-curvature="0"
     id="path3788"
     d="m -0.84028368,1.7230484 c -0.029841,-0.00679 -0.051173,-0.026003 -0.060976,-0.054925 -0.00526,-0.015508 -0.00416,-0.04045 0.00253,-0.057982 0.020071,-0.052506 0.06786,-0.085966 0.122781,-0.085966 0.023968,0 0.049418,0.00705 0.069029,0.019114 0.014612,0.00899 0.013606,0.012556 0.014819,-0.052545 0.00199,-0.1070066 0.00456,-0.2953841 0.00455,-0.3334818 -1.38e-5,-0.037563 1.22e-5,-0.037821 0.00389,-0.039484 0.00345,-0.00148 0.0412591,-0.010339 0.2149154,-0.050369 0.0243571,-0.00561 0.0781831,-0.018067 0.11961355,-0.027673 0.0414304,-0.00961 0.0765309,-0.017465 0.078001,-0.017465 0.0024,0 0.002549,0.025625 0.001464,0.250426 -0.001326,0.2745066 -8.3506e-4,0.2625386 -0.0117164,0.2856291 -0.0191483,0.040633 -0.0664289,0.069407 -0.12360686,0.075223 -0.0526273,0.00535 -0.087545,-0.00941 -0.10467446,-0.044248 -0.017196,-0.034976 -0.006936,-0.074337 0.0287628,-0.1103773 0.0219714,-0.02218 0.0449546,-0.034445 0.0765404,-0.040845 0.0279985,-0.00567 0.0666975,-4.937e-4 0.0919607,0.012308 0.010533,0.00534 0.0135587,0.00542 0.0145884,4.129e-4 0.001528,-0.00743 0.004137,-0.3252009 0.002684,-0.3267326 -8.3742e-4,-8.823e-4 -0.0283311,0.00446 -0.0645267,0.012549 -0.0346871,0.00775 -0.11542878,0.025774 -0.17942587,0.040059 -0.0639973,0.014285 -0.11760525,0.026454 -0.11912941,0.027043 -0.003459,0.00134 -0.004882,0.034731 -0.005157,0.1207368 -1.0181e-4,0.031999 -8.3166e-4,0.1054606 -0.001618,0.1632489 -0.001156,0.084594 -0.001956,0.1072697 -0.004108,0.1163583 -0.008403,0.035547 -0.022195,0.059641 -0.0481041,0.084014 -0.011249,0.010583 -0.017949,0.015195 -0.031819,0.021907 -0.00966,0.00468 -0.022259,0.00975 -0.02799,0.011286 -0.014952,0.00399 -0.049304,0.00496 -0.063287,0.00178 z"
     style="fill:#2c2c2c"
     inkscape:export-xdpi="180"
     inkscape:export-ydpi="180" />
  <g
     id="g3844">
    <path
       transform="matrix(0.96360078,0,0,0.93991719,0.05548928,0.07809134)"
       style="fill:#000000;fill-opacity:1;filter:url(#filter3840)"
       d="m 0.17381697,0.81358479 c -0.032951,-0.008753 -0.056871,-0.0349431 -0.062524,-0.068456 -0.00531,-0.0314548 0.01067,-0.0704367 0.040206,-0.0981054 0.015676,-0.0146853 0.027999,-0.0222266 0.047046,-0.0287892 0.039314,-0.0135459 0.080277,-0.008551 0.1172462,0.0142959 0.00436,0.002692 0.00581,0.002961 0.00636,0.001175 3.9e-4,-0.001272 0.00157,-0.0675688 0.00263,-0.14732621 0.00343,-0.25874818 0.00385,-0.27860036 0.00598,-0.28062605 0.00109,-0.001038 0.029718,-0.008249 0.0636274,-0.0160208 0.004239,-9.715e-4 0.009412,-0.00216 0.0153764,-0.003531 l 0.0712222,-0.0164199 c 0.0377411,-0.008713 0.0813207,-0.0187889 0.12162889,-0.0281219 l 0.1037909,-0.0236978 c 0.0267347,-0.005984 0.043456,-0.00957 0.0437108,-0.009315 0.001179,0.001179 6.0777e-4,0.32745889 -7.5209e-4,0.42983398 -0.001139,0.0857537 -0.001655,0.0904473 -0.0123764,0.11255718 -0.008497,0.0175236 -0.0301513,0.0396317 -0.0493493,0.0503841 -0.0158695,0.009059 -0.0289906,0.0147361 -0.0476084,0.018723 -0.005537,0.00146 -0.0109621,0.002646 -0.0160789,0.003489 -0.0179471,0.002957 -0.0495614,0.00241 -0.0643791,-0.001113 -0.0220556,-0.005244 -0.0432364,-0.0220618 -0.0532156,-0.0422533 -0.0148912,-0.0301311 -0.0112526,-0.0597883 0.0114611,-0.0933982 0.0270361,-0.0400064 0.0724977,-0.0640714 0.12136607,-0.064245 0.0254042,-9.014e-5 0.0510959,0.005916 0.0699591,0.0163539 0.003571,0.001977 0.006926,0.00316 0.007455,0.002632 0.001119,-0.001119 0.004065,-0.1809851 0.004369,-0.26663828 1.9647e-4,-0.0556469 4.394e-5,-0.0586729 -0.002981,-0.0591461 -0.00483,-7.5554e-4 -0.35542423,0.0777162 -0.35774758,0.0800728 -0.001485,0.001508 -0.002534,0.0505452 -0.003966,0.18527113 -0.001067,0.10077145 -0.002721,0.19008847 -0.003672,0.19848228 -0.006482,0.0445372 -0.0413321,0.10998163 -0.0953708,0.1272863 -0.007284,0.002882 -0.0148373,0.00517 -0.0226062,0.006805 -0.015716,0.003306 -0.048076,0.003222 -0.060799,-1.5786e-4 z"
       id="path3792-8-5"
       inkscape:connector-curvature="0"
       sodipodi:nodetypes="ccssccscscccccsccccscssccssccccscc" />
    <path
       transform="matrix(0.96360078,0,0,0.93991719,0.04304,0.06278606)"
       style="fill:#ffffff;fill-opacity:1;filter:url(#filter4019-3)"
       d="m 0.17381697,0.81358479 c -0.032951,-0.008753 -0.056871,-0.0349431 -0.062524,-0.068456 -0.00531,-0.0314548 0.01067,-0.0704367 0.040206,-0.0981054 0.015676,-0.0146853 0.027999,-0.0222266 0.047046,-0.0287892 0.039314,-0.0135459 0.080277,-0.008551 0.1172462,0.0142959 0.00436,0.002692 0.00581,0.002961 0.00636,0.001175 3.9e-4,-0.001272 0.00157,-0.0675688 0.00263,-0.14732621 0.00343,-0.25874818 0.00385,-0.27860036 0.00598,-0.28062605 0.00109,-0.001038 0.029718,-0.008249 0.0636274,-0.0160208 0.004239,-9.715e-4 0.009412,-0.00216 0.0153764,-0.003531 l 0.0712222,-0.0164199 c 0.0377411,-0.008713 0.0813207,-0.0187889 0.12162889,-0.0281219 l 0.1037909,-0.0236978 c 0.0267347,-0.005984 0.043456,-0.00957 0.0437108,-0.009315 0.001179,0.001179 6.0777e-4,0.32745889 -7.5209e-4,0.42983398 -0.001139,0.0857537 -0.001655,0.0904473 -0.0123764,0.11255718 -0.008497,0.0175236 -0.0301513,0.0396317 -0.0493493,0.0503841 -0.0158695,0.009059 -0.0289906,0.0147361 -0.0476084,0.018723 -0.005537,0.00146 -0.0109621,0.002646 -0.0160789,0.003489 -0.0179471,0.002957 -0.0495614,0.00241 -0.0643791,-0.001113 -0.0220556,-0.005244 -0.0432364,-0.0220618 -0.0532156,-0.0422533 -0.0148912,-0.0301311 -0.0112526,-0.0597883 0.0114611,-0.0933982 0.0270361,-0.0400064 0.0724977,-0.0640714 0.12136607,-0.064245 0.0254042,-9.014e-5 0.0510959,0.005916 0.0699591,0.0163539 0.003571,0.001977 0.006926,0.00316 0.007455,0.002632 0.001119,-0.001119 0.004065,-0.1809851 0.004369,-0.26663828 1.9647e-4,-0.0556469 4.394e-5,-0.0586729 -0.002981,-0.0591461 -0.00483,-7.5554e-4 -0.35542423,0.0777162 -0.35774758,0.0800728 -0.001485,0.001508 -0.002534,0.0505452 -0.003966,0.18527113 -0.001067,0.10077145 -0.002721,0.19008847 -0.003672,0.19848228 -0.006482,0.0445372 -0.0413321,0.10998163 -0.0953708,0.1272863 -0.007284,0.002882 -0.0148373,0.00517 -0.0226062,0.006805 -0.015716,0.003306 -0.048076,0.003222 -0.060799,-1.5786e-4 z"
       id="path3792-8"
       inkscape:connector-curvature="0"
       sodipodi:nodetypes="ccssccscscccccsccccscssccssccccscc" />
  </g>
</svg>
